<?xml version="1.0" encoding="UTF-8"?><svg id="a" xmlns="http://www.w3.org/2000/svg" width="1500" height="250" viewBox="0 0 1500 250"><path d="m361.26,156.54l-3.89,4.2c-13.09,14.12-37.48,40.4-50.55,45.81-5.2,2.15-10.64,3.2-16.01,3.2-10.81,0-21.39-4.23-29.35-12.22-16.22-16.28-16.22-42.75,0-59l35.11-33.81c7.81-7.84,18.24-12.16,29.37-12.16s21.62,4.32,29.45,12.17c3.45,3.46,3.45,9.08,0,12.54-1.66,1.68-3.89,2.6-6.25,2.6s-4.59-.92-6.26-2.6c-4.49-4.5-10.5-6.98-16.91-6.98s-12.43,2.48-16.91,6.98l-35.1,33.81c-9.3,9.33-9.3,24.56.01,33.92,6.85,6.86,17.1,8.9,26.12,5.17,7.52-3.1,22.49-19.1,31.45-28.67l2.65-2.83.75.14c7.14,1.36,13.65,2.27,20.95-.35l5.38-1.94h-.01s0,.01,0,.01Z" style="fill:#0f978e; stroke-width:0px;"/><path d="m407.44,111.45l-32.3,32.4c-7.82,7.85-18.27,12.17-29.4,12.17s-21.62-4.32-29.45-12.17c-3.45-3.46-3.45-9.08,0-12.54,1.68-1.68,3.89-2.6,6.25-2.6s4.59.92,6.24,2.61c4.49,4.5,10.5,6.98,16.92,6.98s12.41-2.48,16.9-6.98l32.3-32.4c9.33-9.36,9.33-24.57,0-33.93-6.86-6.86-17.11-8.9-26.12-5.17-7.44,3.06-21.43,18.06-29.81,27.03l-2.88,3.08-.75-.14c-7.47-1.42-15.22-.82-22.35,1.73l-5.38,1.93,3.89-4.19c18.15-19.56,38.55-40.84,50.56-45.81,15.64-6.48,33.45-2.94,45.36,9.01,16.22,16.26,16.23,42.73,0,59h.01s0,0,0,0Z" style="fill:#ff6c26; stroke-width:0px;"/><path d="m480.38,79.53h17.36v63.28h63.28v17.47h-80.64v-80.75Z" style="fill:#0f978e; stroke-width:0px;"/><path d="m567.63,79.64h17.47v80.64h-17.47v-80.64Z" style="fill:#0f978e; stroke-width:0px;"/><path d="m655.21,79.64h17.58v80.64h-17.92l-45.36-53.98v53.98h-17.36v-80.64h17.92l45.14,53.76v-53.76Z" style="fill:#0f978e; stroke-width:0px;"/><path d="m763.29,79.64v6.05l-28.78,34.27c9.41,11.31,19.38,23.07,28.78,34.27v6.05h-18.14l-26.43-31.58h-15.79v31.58h-17.47v-80.64h17.47v31.58h15.79c3.36-3.92,6.72-7.95,10.08-11.98l16.35-19.6h18.14Z" style="fill:#0f978e; stroke-width:0px;"/><path d="m852.44,111.34c0,1.9-.22,3.7-.78,5.15,2.24,2.8,3.92,6.72,3.92,10.53v16.69c0,9.18-7.5,16.58-16.69,16.58h-63.95v-80.64h60.93c9.07,0,16.58,7.39,16.58,16.58v15.12Zm-60.14-.78h42.56v-13.44h-42.56v13.44Zm0,32.26h45.7v-14.78h-45.7v14.78Z" style="fill:#ff6c26; stroke-width:0px;"/><path d="m948.31,117.16c0,9.07-7.5,16.58-16.69,16.58h-.78c5.71,6.72,11.87,13.89,17.47,20.61v5.94h-17.92l-22.29-26.54-23.07.11c.22,0,.34.22.34.67,0,0-.22,0-.34-.11v25.87h-17.36v-80.53h63.95c9.18,0,16.69,7.5,16.69,16.58v20.83Zm-63.28-.9h45.7v-19.15h-45.7v19.15Z" style="fill:#ff6c26; stroke-width:0px;"/><path d="m960.29,79.64h17.47v80.64h-17.47v-80.64Z" style="fill:#ff6c26; stroke-width:0px;"/><path d="m1049,79.64c9.18,0,16.69,7.39,16.69,16.58v47.49c0,9.18-7.5,16.58-16.69,16.58h-63.95v-80.64h63.95Zm-46.59,63.17h45.7v-45.7h-45.7v45.7Z" style="fill:#ff6c26; stroke-width:0px;"/><path d="m1158.87,103.83h-17.58v-6.72h-45.7v45.7h45.7v-12.1h-17.47v-17.47h35.06v30.46c0,9.18-7.5,16.58-16.69,16.58h-47.38c-9.18,0-16.58-7.39-16.58-16.58v-47.49c0-9.18,7.39-16.58,16.58-16.58h47.38c9.18,0,16.69,7.39,16.69,16.58v7.62Z" style="fill:#ff6c26; stroke-width:0px;"/><path d="m1245.89,97.11h-56.9v14.11h45.81v17.47h-45.81v14.11h56.9v17.47h-74.48v-80.64h74.48v17.47Z" style="fill:#ff6c26; stroke-width:0px;"/></svg>