<?xml version="1.0" encoding="UTF-8"?><svg id="a" xmlns="http://www.w3.org/2000/svg" viewBox="0 0 1887.91 1879.07"><path d="m1241.3,1289.12l-43.14,46.54c-145.17,156.45-415.56,447.86-560.41,507.85-57.67,23.81-117.96,35.56-177.48,35.56-119.81,0-237.15-46.84-325.43-135.43-179.79-180.41-179.79-473.84,0-654.1l389.28-374.74c86.57-86.89,202.21-134.81,325.58-134.81s239.63,47.93,326.51,134.96c38.19,38.34,38.19,100.65,0,138.98-18.4,18.55-43.13,28.76-69.26,28.76s-50.86-10.2-69.41-28.76c-49.78-49.94-116.41-77.45-187.37-77.45s-137.74,27.52-187.53,77.45l-389.12,374.74c-103.12,103.43-103.12,272.24.15,375.98,75.91,76.06,189.54,98.64,289.56,57.36,83.33-34.32,249.36-211.8,348.61-317.85l29.38-31.38,8.35,1.55c79.15,14.99,151.35,25.2,232.2-3.86l59.67-21.49-.15.15Z" style="fill:#0f978e; stroke-width:0px;"/><path d="m1753.17,789.32l-358.05,359.13c-86.73,87.04-202.52,134.96-325.89,134.96s-239.63-47.93-326.51-134.96c-38.18-38.34-38.18-100.64,0-138.98,18.55-18.55,43.14-28.76,69.26-28.76s50.86,10.2,69.26,28.91c49.78,49.94,116.41,77.45,187.53,77.45s137.59-27.52,187.37-77.45l358.05-359.13c103.43-103.73,103.43-272.4,0-376.14-76.06-76.06-189.69-98.64-289.56-57.35-82.4,34.01-237.62,200.2-330.38,299.6l-32,34.17-8.35-1.55c-82.86-15.77-168.67-9.12-247.82,19.17l-59.68,21.33,43.14-46.38c201.28-216.74,427.3-452.66,560.57-507.85,173.45-71.89,370.88-32.62,502.9,99.87,179.8,180.26,179.95,473.69,0,654.1l.16-.15Z" style="fill:#ff6c26; stroke-width:0px;"/></svg>