<?xml version="1.0" encoding="UTF-8"?><svg id="a" xmlns="http://www.w3.org/2000/svg" viewBox="0 0 1483.81 253.87"><path d="m325.42,188.59v-122.42h26.31v95.94h95.94v26.48h-122.25Z" style="fill:#0f978e; stroke-width:0px;"/><path d="m453.27,188.59v-122.25h25.98v122.25h-25.98Z" style="fill:#0f978e; stroke-width:0px;"/><path d="m493.83,188.59v-122.25h27.17l68.44,81.5v-81.5h26.65v122.25h-27.17l-68.75-81.83v81.83h-26.33Z" style="fill:#0f978e; stroke-width:0px;"/><path d="m635.27,188.59v-122.25h26.48v47.88h23.94l40.06-47.88h27.52v9.17l-43.65,51.96,43.65,51.96v9.17h-27.52l-40.06-47.88h-23.94v47.88h-26.48Z" style="fill:#0f978e; stroke-width:0px;"/><path d="m167.7,174.17l-5.83,6.29c-19.61,21.14-56.14,60.51-75.71,68.61-7.79,3.22-15.94,4.8-23.98,4.8-16.19,0-32.04-6.33-43.96-18.3-24.29-24.38-24.29-64.02,0-88.37l52.59-50.63c11.69-11.74,27.32-18.21,43.98-18.21s32.38,6.47,44.11,18.23c5.16,5.18,5.16,13.6,0,18.78-2.48,2.51-5.83,3.89-9.36,3.89s-6.87-1.38-9.38-3.89c-6.73-6.74-15.73-10.46-25.32-10.46s-18.61,3.72-25.33,10.46l-52.57,50.63c-13.93,13.97-13.93,36.78.02,50.8,10.26,10.28,25.61,13.33,39.12,7.75,11.26-4.64,33.69-28.61,47.1-42.94l3.97-4.24,1.13.21c10.69,2.03,20.45,3.4,31.37-.52l8.06-2.91-.02.02Z" style="fill:#0f978e; stroke-width:0px;"/><path d="m770.91,188.59v-122.25h92.35c4.53,0,8.69,1.14,12.48,3.4,3.79,2.27,6.84,5.29,9.17,9.08,2.33,3.79,3.5,8.01,3.5,12.65v22.92c0,1.47-.09,2.86-.27,4.17-.17,1.31-.47,2.52-.92,3.65,1.69,2.16,3.1,4.65,4.23,7.48,1.14,2.83,1.71,5.66,1.71,8.48v25.31c0,4.53-1.16,8.72-3.48,12.56-2.32,3.85-5.38,6.91-9.17,9.17-3.79,2.27-8.02,3.4-12.67,3.4h-96.94Zm26.31-26.48h69.27v-22.42h-69.27v22.42Zm0-48.92h64.52v-20.38h-64.52v20.38Z" style="fill:#ff6c26; stroke-width:0px;"/><path d="m1006.56,188.59l-35.48-42.27h34.46l28.19,33.27v9h-27.17Zm-94.92,0v-122.08h96.96c4.64,0,8.85,1.14,12.65,3.4,3.79,2.27,6.84,5.32,9.17,9.17,2.32,3.85,3.48,8.04,3.48,12.56v31.58c0,4.53-1.16,8.72-3.48,12.56-2.32,3.85-5.38,6.91-9.17,9.17-3.79,2.27-8.01,3.4-12.65,3.4l-70.63.19v40.06h-26.33Zm26.33-66.73h69.27v-29.04h-69.27v29.04Z" style="fill:#ff6c26; stroke-width:0px;"/><path d="m1047.48,188.59v-122.25h25.98v122.25h-25.98Z" style="fill:#ff6c26; stroke-width:0px;"/><path d="m1088.4,188.59v-122.25h96.94c4.64,0,8.85,1.14,12.65,3.4,3.8,2.27,6.86,5.29,9.19,9.08,2.32,3.79,3.48,8.01,3.48,12.65v72c0,4.53-1.16,8.72-3.48,12.56-2.32,3.85-5.39,6.91-9.19,9.17-3.79,2.27-8.01,3.4-12.65,3.4h-96.94Zm26.15-26.48h69.44v-69.29h-69.44v69.29Z" style="fill:#ff6c26; stroke-width:0px;"/><path d="m1254.79,188.59c-4.53,0-8.72-1.13-12.58-3.4-3.85-2.26-6.91-5.32-9.17-9.17-2.27-3.84-3.4-8.03-3.4-12.56v-72c0-4.64,1.13-8.85,3.4-12.65,2.26-3.79,5.32-6.82,9.17-9.08,3.86-2.26,8.05-3.4,12.58-3.4h71.81c4.64,0,8.85,1.14,12.65,3.4,3.79,2.27,6.84,5.29,9.17,9.08,2.32,3.79,3.48,8.01,3.48,12.65v11.54h-26.65v-10.19h-69.27v69.29h69.27v-18.35h-26.5v-26.48h53.15v46.19c0,4.53-1.16,8.72-3.48,12.56-2.32,3.85-5.38,6.91-9.17,9.17-3.79,2.27-8.01,3.4-12.65,3.4h-71.81Z" style="fill:#ff6c26; stroke-width:0px;"/><path d="m1370.91,188.59v-122.25h112.9v26.48h-86.25v21.4h69.46v26.5h-69.46v21.4h86.25v26.48h-112.9Z" style="fill:#ff6c26; stroke-width:0px;"/><path d="m236.86,106.64l-48.38,48.52c-11.71,11.76-27.36,18.23-44.03,18.23s-32.38-6.47-44.11-18.23c-5.16-5.18-5.16-13.6,0-18.78,2.51-2.51,5.83-3.89,9.36-3.89s6.87,1.38,9.35,3.91c6.73,6.74,15.73,10.46,25.34,10.46s18.59-3.72,25.31-10.46l48.38-48.52c13.97-14.02,13.97-36.8,0-50.82-10.28-10.28-25.63-13.33-39.12-7.75-11.14,4.59-32.1,27.05-44.64,40.48l-4.32,4.61-1.13-.21c-11.19-2.13-22.79-1.23-33.48,2.59l-8.06,2.89,5.83-6.27c27.19-29.29,57.73-61.16,75.73-68.61,23.43-9.71,50.1-4.41,67.94,13.49,24.29,24.35,24.31,63.99,0,88.37l.02-.02Z" style="fill:#ff6c26; stroke-width:0px;"/></svg>