<?xml version="1.0" encoding="UTF-8"?><svg id="a" xmlns="http://www.w3.org/2000/svg" xmlns:xlink="http://www.w3.org/1999/xlink" viewBox="0 0 1434.74 251.54"><defs><clipPath id="b"><rect x="38.7" y="140.28" width="143.18" height="111.26" style="fill:none; stroke-width:0px;"/></clipPath><clipPath id="c"><rect x="69.66" width="150.92" height="157.7" style="fill:none; stroke-width:0px;"/></clipPath></defs><g style="clip-path:url(#b);"><path d="m126.73,251.54h-32.89c-12.81,0-23.22-10.42-23.22-23.22v-2.65c0-26.17-10.18-50.78-28.69-69.28-3.02-3.02-3.02-7.92,0-10.95,3.02-3.02,7.92-3.02,10.94,0,21.43,21.43,33.23,49.92,33.23,80.23v2.65c0,4.27,3.48,7.74,7.74,7.74h32.89c4.27,0,7.74-3.48,7.74-7.74v-2.65c0-30.3,11.8-58.8,33.23-80.23,3.02-3.02,7.92-3.02,10.94,0,3.02,3.02,3.02,7.92,0,10.95-18.5,18.5-28.69,43.11-28.69,69.28v2.65c0,12.81-10.42,23.22-23.22,23.22Z" style="fill:#0f978e; stroke-width:0px;"/></g><path d="m110.29,196.31c-4.27,0-7.74-3.45-7.74-7.71v-3.64c0-14.83-7.39-28.6-19.76-36.83-3.56-2.36-4.51-7.15-2.14-10.69,2.36-3.54,7.17-4.5,10.73-2.14,16.69,11.09,26.66,29.66,26.66,49.67v3.64c0,4.27-3.47,7.72-7.74,7.72h0Z" style="fill:#0f978e; stroke-width:0px;"/><path d="m52.32,109.32c4.08,1.52,8.62-.53,10.14-4.61l1.09-2.9c5.31-14.14,17.29-24.64,32.04-28.08,4.24-.99,6.86-5.21,5.88-9.43-.98-4.22-5.23-6.84-9.46-5.87-19.89,4.63-36.04,18.79-43.21,37.87l-1.09,2.9c-1.53,4.07.54,8.59,4.62,10.12h0Z" style="fill:#0f978e; stroke-width:0px;"/><path d="m140.39,120.37c-.69,1.78-1.68,3.9-3.12,6.14-1.86,2.89-3.88,5.05-5.54,6.59-2.25,2.03-6.18,5.03-11.83,6.81-3.05.97-6.27,1.47-9.6,1.47-13.38,0-25.19-8.24-30.1-21.01-1.24-3.23-4.4-5.3-7.94-5.02-3.47.25-6.36,2.74-7.11,6.12-2.63,11.73-12.63,19.91-24.35,19.91-13.81,0-25.04-11.5-25.04-25.63,0-11.49,7.63-21.63,18.57-24.63,2.16-.59,3.95-2.07,4.95-4.06,1-2,1.1-4.32.28-6.39-1.23-3.13-1.86-6.35-1.86-9.58,0-14.14,11.23-25.64,25.04-25.64,3.71,0,7.42.93,11.05,2.78,2.44,1.25,5.35,1.14,7.69-.29,3.47-2.13,3.75-6.16,3.77-6.68.04-.69.12-2.55-1.05-4.5-1.04-1.75-2.52-2.62-3.16-2.94-1.89-.85-4.07-1.67-6.53-2.35-1.26-.35-2.47-.63-3.62-.86-2.69-.58-5.41-.87-8.15-.87-22.5,0-40.8,18.56-40.8,41.35,0,2.61.25,5.19.74,7.74C9.02,85.71,0,99.94,0,115.76c0,22.8,18.3,41.35,40.8,41.35,13.45,0,25.52-6.53,32.98-17,8.94,10.64,22.11,17,36.52,17,10.63,0,20.58-3.48,28.67-9.57,1.27-.89,2.67-2,4.11-3.35,1.51-1.42,2.74-2.81,3.73-4.07" style="fill:#0f978e; stroke-width:0px;"/><g style="clip-path:url(#c);"><path d="m79,32.96c-2.86-1.1-5.62-1.87-8.11-2.34C74.43,13.51,88.79-.03,110.29-.03c18.82,0,34.73,13.02,39.4,30.65,2.69-.58,5.41-.87,8.15-.87,22.5,0,40.79,18.55,40.79,41.35,0,2.6-.25,5.18-.74,7.74,13.66,6.87,22.68,21.1,22.68,36.92,0,22.79-18.3,41.34-40.8,41.34-13.45,0-25.52-6.53-32.98-17-1.9-2.68-4.4-6.97-5.64-12.7-.57-2.63-.76-5-.77-7.02,1.17-3.06,4.11-5.05,7.36-5.05.2,0,.38,0,.58.03,3.47.25,6.36,2.74,7.11,6.12,2.63,11.73,12.64,19.91,24.36,19.91,13.81,0,25.04-11.5,25.04-25.63,0-11.49-7.64-21.63-18.57-24.64-2.16-.59-3.95-2.07-4.95-4.06-1-2-1.1-4.31-.28-6.39,1.24-3.12,1.86-6.34,1.86-9.57,0-14.14-11.23-25.64-25.03-25.64-3.72,0-7.43.94-11.06,2.79-2.44,1.24-5.35,1.14-7.68-.29-2.34-1.42-3.77-3.95-3.78-6.69-.04-14.11-11.27-25.94-25.03-25.58-13.77.37-21,7.8-25.03,24.53-.04-.7-.21-2.04-1.05-3.45-1.05-1.77-2.53-2.62-3.16-2.94-.66-.3-1.33-.59-2.04-.87l-.03-.02Z" style="fill:#ff6c26; stroke-width:0px;"/></g><path d="m275.73,169.3v-88.04h66.27s6.23,1.21,8.95,2.83c2.73,1.63,4.92,3.8,6.59,6.53,1.66,2.72,2.5,5.74,2.36,9.07v16.45c.14,1.06.08,2.07-.04,3-.12.93-.34,1.8-.67,2.62,1.22,1.55,2.24,3.34,3.04,5.36.82,2.03,1.53,6.09,1.53,6.09v17.99c0,3.27-.84,6.28-2.51,9.06-1.67,2.77-3.88,4.96-6.61,6.59-2.72,1.63-5.76,2.45-9.1,2.45h-69.82Zm19.35-18.38h49.34v-16.45h-49.34v16.45Zm-.97-35.8h46.44v-14.51h-46.44v14.51Z" style="fill:#0f978e; stroke-width:0px;"/><path d="m445.12,169.3l-25.17-29.99h24.45l19.97,23.62v6.37h-19.26Zm-68.78,0v-88.04h69.82c3.34,0,6.38.82,9.12,2.45,2.74,1.63,4.93,3.84,6.59,6.62,1.67,2.77,2.51,5.79,2.51,9.05v22.78c0,3.27-.84,6.29-2.51,9.07-1.66,2.77-3.86,4.97-6.59,6.6-2.74,1.63-5.78,2.45-9.12,2.45l-50.47.12v28.9h-19.35Zm19.35-47.41h49.34v-21.28h-49.34v21.28Z" style="fill:#0f978e; stroke-width:0px;"/><path d="m495.04,169.3c-3.25,0-6.26-.81-9.04-2.45-2.78-1.63-4.99-3.83-6.61-6.59-1.62-2.78-2.43-5.79-2.43-9.06v-51.84c0-3.34.81-6.37,2.43-9.1,1.63-2.73,3.83-4.92,6.61-6.55,2.78-1.63,5.79-2.45,9.04-2.45h51.86c3.26,0,6.25.82,8.98,2.45,2.74,1.63,4.94,3.82,6.61,6.55,1.67,2.72,2.51,5.76,2.51,9.1v51.84c0,3.27-.84,6.28-2.51,9.06-1.67,2.77-3.88,4.96-6.61,6.59-2.73,1.63-5.72,2.45-8.98,2.45h-51.86Zm1.27-19.35h49.34v-49.34h-49.34v49.34Z" style="fill:#0f978e; stroke-width:0px;"/><path d="m596.49,169.3c-3.32,0-6.33-.81-9.05-2.45-2.7-1.63-4.86-3.81-6.48-6.53-1.62-2.73-2.43-5.77-2.43-9.12v-51.84c0-3.34.81-6.37,2.43-9.1,1.61-2.73,3.78-4.92,6.48-6.55,2.71-1.63,5.73-2.45,9.05-2.45h69.12v19.35h-64.67c-1.29,0-2.29.33-2.99.98-.69.64-1.03,1.65-1.03,3.02v41.34c0,1.29.34,2.29,1.03,2.98.7.68,1.7,1.02,2.99,1.02h64.67v19.35h-69.12Z" style="fill:#0f978e; stroke-width:0px;"/><path d="m696.14,169.3c-3.32,0-6.33-.81-9.05-2.45-2.7-1.63-4.86-3.81-6.48-6.53-1.62-2.73-2.43-5.77-2.43-9.12v-51.84c0-3.34.81-6.37,2.43-9.1,1.61-2.73,3.78-4.92,6.48-6.55,2.71-1.63,5.73-2.45,9.05-2.45h69.12v19.35h-63.76c-1.27,0-2.26.33-2.94.98-.68.64-1.01,1.65-1.01,3.02v41.34c0,1.29.34,2.29,1.01,2.98.69.68,1.67,1.02,2.94,1.02h63.76v19.35h-69.12Z" style="fill:#0f978e; stroke-width:0px;"/><path d="m795.92,169.3c-3.25,0-6.26-.81-9.04-2.45-2.78-1.63-4.99-3.83-6.61-6.59-1.62-2.78-2.43-5.79-2.43-9.06v-51.84c0-3.34.81-6.37,2.43-9.1,1.63-2.73,3.83-4.92,6.61-6.55,2.78-1.63,5.79-2.45,9.04-2.45h51.86c3.26,0,6.25.82,8.98,2.45,2.74,1.63,4.94,3.82,6.61,6.55,1.67,2.72,2.51,5.76,2.51,9.1v51.84c0,3.27-.84,6.28-2.51,9.06-1.67,2.77-3.88,4.96-6.61,6.59-2.73,1.63-5.72,2.45-8.98,2.45h-51.86Zm1.27-19.35h49.34v-49.34h-49.34v49.34Z" style="fill:#0f978e; stroke-width:0px;"/><path d="m879.42,169.3v-88.04h19.35v68.69h68.69v19.35h-88.04Z" style="fill:#0f978e; stroke-width:0px;"/><path d="m971.33,169.3v-88.04h18.38v88.04h-18.38Z" style="fill:#0f978e; stroke-width:0px;"/><path d="m1018.43,169.3c-3.25,0-6.26-.81-9.04-2.43-2.78-1.62-4.99-3.8-6.61-6.55-1.62-2.76-2.43-5.75-2.43-9v-8.14h19.35v6.77h49.34v-15.48h-50.65c-3.24,0-6.25-.81-9.02-2.43-2.77-1.62-4.97-3.78-6.6-6.49-1.61-2.72-2.42-5.73-2.42-9.06v-17.25c0-3.32.81-6.33,2.42-9.04,1.62-2.72,3.82-4.89,6.6-6.51,2.77-1.62,5.78-2.43,9.02-2.43h51.75c3.29,0,6.31.81,9.05,2.43,2.76,1.62,4.98,3.79,6.67,6.51,1.68,2.71,2.53,5.72,2.53,9.04v8.14h-19.35v-6.77h-49.34v15.48h50.59c3.26,0,6.25.81,8.98,2.43,2.74,1.62,4.94,3.79,6.61,6.51,1.67,2.71,2.51,5.72,2.51,9.04v17.25c0,3.24-.84,6.24-2.51,9-1.67,2.75-3.88,4.93-6.61,6.55-2.73,1.62-5.72,2.43-8.98,2.43h-51.86Z" style="fill:#ff6c26; stroke-width:0px;"/><path d="m1130.6,169.3l-32.03-88.04h20.16l19.21,52.45,19.19-52.45h17.49l19.31,52.45,19.21-52.45h20.04l-32.03,88.04h-14.56l-20.79-56.62-20.64,56.62h-14.56Z" style="fill:#ff6c26; stroke-width:0px;"/><path d="m1245.12,169.3v-69.94c0-3.34.81-6.37,2.45-9.1,1.63-2.73,3.83-4.92,6.59-6.55,2.78-1.63,5.79-2.45,9.06-2.45h51.72c3.33,0,6.36.82,9.1,2.45,2.73,1.63,4.94,3.82,6.61,6.55,1.67,2.72,2.51,5.76,2.51,9.1v69.94h-19.35v-28.06h-49.34v28.06h-19.35Zm19.35-47.41h49.34v-21.28h-49.34v21.28Z" style="fill:#ff6c26; stroke-width:0px;"/><path d="m1346.7,169.3v-88.04h69.82c3.34,0,6.38.82,9.12,2.45,2.74,1.63,4.93,3.84,6.59,6.62,1.67,2.77,2.51,5.79,2.51,9.05v22.78c0,3.27-.84,6.29-2.51,9.07-1.66,2.77-3.86,4.97-6.59,6.6-2.74,1.63-5.78,2.45-9.12,2.45l-50.47.12v28.9h-19.35Zm19.35-47.41h49.34v-21.28h-49.34v21.28Z" style="fill:#ff6c26; stroke-width:0px;"/></svg>