<?xml version="1.0" encoding="UTF-8"?><svg id="a" xmlns="http://www.w3.org/2000/svg" width="1500" height="250" xmlns:xlink="http://www.w3.org/1999/xlink" viewBox="0 0 1500 250"><defs><clipPath id="b"><rect x="130.55" y="133.63" width="117.13" height="91.06" style="fill:none; stroke-width:0px;"/></clipPath><clipPath id="c"><polygon points="154.9 25.31 275.74 26.18 275.74 151.56 154.9 151.56 154.9 25.31" style="fill:none; stroke-width:0px;"/></clipPath></defs><g style="clip-path:url(#b);"><path d="m241.94,138.42c-1.55-1.55-3.54-1.97-5.51-2.44-2.13-.5-4.15.17-5.7,1.71-16.79,16.79-26.03,39.1-26.03,62.85v2.02c0,2-1.63,3.63-3.63,3.63h-25.1c-2,0-3.63-1.63-3.63-3.63v-2.02c0-23.74-9.24-46.06-26.03-62.85-1.55-1.55-3.6-2.4-5.79-2.4s-4.24.85-5.79,2.4c-3.19,3.2-3.19,8.39,0,11.58,13.69,13.68,21.23,31.89,21.23,51.26v2.02c0,11.03,8.97,20,20,20h25.1c11.03,0,20-8.97,20-20v-2.02c0-19.37,7.54-37.57,21.23-51.27,3.19-3.2,2.82-7.67-.37-10.86Z" style="fill:#0f978e; stroke-width:0px;"/></g><path d="m179.14,134.11c-7.2-4.77-10.39-2.31-11.65-.42-1.22,1.82-1.65,4-1.22,6.14.43,2.14,1.67,3.98,3.49,5.19,8.78,5.84,10.58,14,10.58,24.44v2.78c0,4,2.9,7.34,6.71,8.03l.07.15h1.41c4.52,0,8.19-3.67,8.19-8.17v-2.78c0-17.04-4.93-26.95-17.58-35.36Z" style="fill:#0f978e; stroke-width:0px;"/><path d="m144.28,111.74c3.11,1.16,6.58-.4,7.74-3.52l.83-2.21c4.05-10.79,13.2-18.81,24.45-21.43,3.24-.76,5.24-3.98,4.49-7.2s-3.99-5.22-7.22-4.48c-15.18,3.53-27.51,14.34-32.98,28.9l-.83,2.21" style="fill:#0f978e; stroke:#0f978e; stroke-miterlimit:10; stroke-width:.91px;"/><path d="m146.39,113.49c-.86,0-1.73-.15-2.58-.47l.96-2.57c2.4.89,5.09-.32,5.98-2.71l.83-2.22c4.21-11.22,13.72-19.55,25.42-22.28,2.49-.58,4.04-3.07,3.47-5.55-.58-2.48-3.08-4.03-5.58-3.46-14.73,3.43-26.69,13.92-32,28.05l-.83,2.21-2.56-.96.83-2.21c5.63-14.99,18.33-26.12,33.95-29.75,3.98-.91,7.95,1.56,8.86,5.5.92,3.95-1.55,7.92-5.51,8.84-10.81,2.52-19.59,10.22-23.48,20.58l-.83,2.21c-1.1,2.96-3.92,4.79-6.92,4.79Z" style="fill:#0f978e; stroke-width:0px;"/><path d="m140.76,104.01c-1.17,3.11.41,6.56,3.53,7.72" style="fill:#0f978e; stroke:#0f978e; stroke-miterlimit:10; stroke-width:2.74px;"/><path d="m208.48,124.06c-1.28,1.62-2.97,3.39-4.51,4.81-2.51,2.27-5.38,3.92-8.53,4.91-2.21.7-4.53,1.06-6.91,1.06-9.64,0-18.15-5.95-21.69-15.16-1.18-3.07-4.18-4.97-7.44-4.71-3.23.23-5.97,2.59-6.66,5.74-1.86,8.32-8.96,14.13-17.25,14.13-9.78,0-17.74-8.16-17.74-18.19,0-8.17,5.41-15.35,13.16-17.48,2.01-.55,3.7-1.94,4.64-3.81.93-1.87,1.03-4.05.26-5.99-.88-2.24-1.32-4.53-1.32-6.81,0-10.04,7.96-18.2,17.74-18.2,2.62,0,5.24.66,7.81,1.97,2.3,1.18,5,1.08,7.21-.27,3.28-2.01,3.51-5.79,3.53-6.18.09-1.55-.24-2.97-.99-4.21-.94-1.59-2.27-2.42-3.03-2.79-1.65-.74-3.4-1.37-5.18-1.86-.93-.26-1.87-.48-2.84-.68-2.14-.46-4.33-.69-6.51-.69-17.93,0-32.51,14.77-32.51,32.93,0,1.72.14,3.45.41,5.16-10.46,5.69-17.16,16.94-17.16,28.93,0,18.16,14.58,32.93,32.51,32.93,9.84,0,19.16-4.52,25.25-12.18,7.14,7.76,17.17,12.18,27.79,12.18,8.27,0,16.12-2.62,22.67-7.55,1.13-.79,2.23-1.69,3.29-2.68,1.08-1.02,2.09-2.12,2.99-3.26l-1.08-.85-4.26-13.09c.22-.49.44-.98.63-1.49l-.58-.45-.38-.74" style="fill:#0f978e; stroke-width:0px;"/><g style="clip-path:url(#c);"><path d="m256.4,87.97c.31-1.8.46-3.61.46-5.41,0-17.9-14.38-32.47-32.04-32.47-1.86,0-3.73.17-5.57.52-4.02-13.73-16.54-23.24-30.72-23.24-16.07,0-27.43,8.51-30.39,22.83.77.15,1.43.29,1.96.42.5.12,1.26.3,2.24.6.71.21,1.28.41,1.68.55.32.11,1.32.47,1.97.76.53.24,3.17,1.44,4.28,4.09.27.63.37,1.18.42,1.5.13-1.22.73-10.41,8.42-14.2,3.76-2.47,7.64-2.76,9.45-2.74,4.58-.14,9,1.64,12.4,4.95,3.65,3.54,5.75,8.52,5.76,13.67,0,2.43,1.25,4.63,3.32,5.88,2.03,1.24,4.61,1.35,6.75.26,2.64-1.35,5.34-2.03,8.03-2.03,10.03,0,18.19,8.37,18.19,18.66,0,2.36-.46,4.71-1.36,6.97-.72,1.82-.63,3.87.25,5.62.88,1.75,2.47,3.05,4.35,3.57,7.95,2.19,13.5,9.56,13.5,17.93,0,10.28-8.16,18.65-18.2,18.65-8.51,0-15.79-5.96-17.7-14.48-.65-2.95-3.23-5.17-6.18-5.37-.2-.03-.38-.03-.58-.03-2.9,0-5.08,1.81-6.13,5.11l-.04.14v.14c0,.38,0,.74-.02,1.09-.04,1.1-.07,2.23.27,3.84.78,3.58,2.27,6.95,4.45,10.03,5.96,8.36,15.65,13.36,25.91,13.36,17.67,0,32.05-14.56,32.05-32.46,0-11.94-6.73-23.12-17.2-28.68Z" style="fill:#ff6c26; stroke-width:0px;"/></g><path d="m416.92,111.34c0,1.9-.22,3.7-.78,5.15,2.24,2.8,3.92,6.72,3.92,10.53v16.69c0,9.18-7.5,16.58-16.69,16.58h-63.95v-80.64h60.93c9.07,0,16.58,7.39,16.58,16.58v15.12Zm-60.14-.78h42.56v-13.44h-42.56v13.44Zm0,32.26h45.7v-14.78h-45.7v14.78Z" style="fill:#0f978e; stroke-width:0px;"/><path d="m512.79,117.16c0,9.07-7.5,16.58-16.69,16.58h-.78c5.71,6.72,11.87,13.89,17.47,20.61v5.94h-17.92l-22.29-26.54-23.07.11c.22,0,.34.22.34.67,0,0-.22,0-.34-.11v25.87h-17.36v-80.53h63.95c9.18,0,16.69,7.5,16.69,16.58v20.83Zm-63.28-.9h45.7v-19.15h-45.7v19.15Z" style="fill:#0f978e; stroke-width:0px;"/><path d="m588.5,79.64c9.07,0,16.58,7.39,16.58,16.58v47.49c0,9.18-7.5,16.58-16.58,16.58h-47.49c-9.18,0-16.58-7.39-16.58-16.58v-47.49c0-9.18,7.39-16.58,16.58-16.58h47.49Zm-46.7,63.17h45.7v-45.7h-45.7v45.7Z" style="fill:#0f978e; stroke-width:0px;"/><path d="m634.75,97.11v45.7h63.06v17.47h-63.84c-9.18,0-16.58-7.39-16.58-16.58v-47.49c0-9.18,7.39-16.58,16.58-16.58h63.84v17.47h-63.06Z" style="fill:#0f978e; stroke-width:0px;"/><path d="m726.82,97.11v45.7h63.06v17.47h-63.84c-9.18,0-16.58-7.39-16.58-16.58v-47.49c0-9.18,7.39-16.58,16.58-16.58h63.84v17.47h-63.06Z" style="fill:#0f978e; stroke-width:0px;"/><path d="m865.36,79.64c9.07,0,16.58,7.39,16.58,16.58v47.49c0,9.18-7.5,16.58-16.58,16.58h-47.49c-9.18,0-16.58-7.39-16.58-16.58v-47.49c0-9.18,7.39-16.58,16.58-16.58h47.49Zm-46.7,63.17h45.7v-45.7h-45.7v45.7Z" style="fill:#0f978e; stroke-width:0px;"/><path d="m894.37,79.53h17.36v63.28h63.28v17.47h-80.64v-80.75Z" style="fill:#0f978e; stroke-width:0px;"/><path d="m981.61,79.64h17.47v80.64h-17.47v-80.64Z" style="fill:#0f978e; stroke-width:0px;"/><path d="m1086.22,103.72h-17.58v-6.61h-45.7v14.11h46.7c9.07,0,16.58,7.39,16.58,16.58v15.9c0,9.18-7.5,16.58-16.58,16.58h-47.49c-9.18,0-16.58-7.39-16.58-16.58v-7.5h17.36v6.61h45.7v-14.11h-46.48c-9.18,0-16.58-7.39-16.58-16.58v-15.9c0-9.18,7.39-16.58,16.58-16.58h47.49c9.07,0,16.58,7.39,16.58,16.58v7.5Z" style="fill:#ff6c26; stroke-width:0px;"/><path d="m1215.47,79.64l-29.34,80.64h-13.33l-19.04-51.86-7.17,19.71c-3.81,10.42-8.18,21.95-11.76,32.14h-13.33l-29.34-80.64h18.48l17.58,48.05,2.8-7.5c4.82-12.99,9.97-27.44,14.78-40.54h16.02l17.7,48.05,2.8-7.5c4.82-12.99,9.97-27.44,14.78-40.54h18.37Z" style="fill:#ff6c26; stroke-width:0px;"/><path d="m1285.24,79.64c9.18,0,16.69,7.39,16.69,16.58v64.06h-17.58v-25.98h-45.7v25.98h-17.36v-64.06c0-9.18,7.39-16.58,16.58-16.58h47.38Zm-.9,37.18v-19.71h-45.7v19.71h45.7Z" style="fill:#ff6c26; stroke-width:0px;"/><path d="m1378.65,79.75c9.18,0,16.69,7.5,16.69,16.58v20.83c0,9.07-7.5,16.58-16.69,16.58l-46.59.11c.22,0,.34.22.34.67,0,0-.22,0-.34-.11v25.87h-17.36v-80.53h63.95Zm-46.59,36.51h45.7v-19.15h-45.7v19.15Z" style="fill:#ff6c26; stroke-width:0px;"/></svg>