<?xml version="1.0" encoding="UTF-8"?><svg id="a" xmlns="http://www.w3.org/2000/svg" xmlns:xlink="http://www.w3.org/1999/xlink" viewBox="0 0 1662 1901"><defs><clipPath id="b"><rect x="297" y="1068" width="1069" height="833" style="fill:none; stroke-width:0px;"/></clipPath><clipPath id="c"><rect y="225" width="1107" height="964" style="fill:none; stroke-width:0px;"/></clipPath><clipPath id="d"><rect x="534" width="1128" height="1189" style="fill:none; stroke-width:0px;"/></clipPath></defs><g style="clip-path:url(#b);"><path d="m949.49,1901h-236.99c-98.44,0-178.51-80.06-178.51-178.49v-20.37c0-201.14-78.3-390.28-220.58-532.49-23.22-23.22-23.22-60.88,0-84.14,23.22-23.22,60.88-23.22,84.15,0,164.73,164.72,255.43,383.68,255.43,616.64v20.37c0,32.81,26.69,59.49,59.51,59.49h236.99c32.82,0,59.51-26.68,59.51-59.49v-20.37c0-232.91,90.7-451.92,255.43-616.64,23.22-23.22,60.88-23.22,84.15,0,23.22,23.22,23.22,60.87,0,84.14-142.23,142.22-220.58,331.35-220.58,532.49v20.37c0,98.43-80.06,178.49-178.5,178.49h0Z" style="fill:#0f978e; stroke-width:0px;"/></g><path d="m831,1484.67c-32.58,0-59-26.38-59-59.02v-24.8c0-113.47-56.37-218.79-150.73-281.72-27.13-18.09-34.42-54.68-16.34-81.81,17.99-27.09,54.67-34.38,81.79-16.34,127.28,84.83,203.28,226.89,203.28,379.93v24.8c0,32.64-26.42,59.02-59,59.02v-.05Z" style="fill:#0f978e; stroke-width:0px;"/><path d="m394.45,824c30.7,11.52,64.91-4.03,76.42-34.78l8.2-21.94c40.03-106.91,130.28-186.24,241.42-212.21,31.93-7.49,51.73-39.38,44.29-71.32-7.39-31.89-39.36-51.7-71.3-44.31-149.84,34.97-271.55,142.03-325.56,286.18l-8.2,21.94c-11.51,30.76,4.07,64.92,34.78,76.44h-.05Z" style="fill:#0f978e; stroke-width:0px;"/><g style="clip-path:url(#c);"><path d="m1058.03,910.4c-5.21,13.46-12.69,29.48-23.54,46.4-14.03,21.85-29.23,38.2-41.79,49.81-16.91,15.35-46.57,38.01-89.11,51.46-22.98,7.3-47.28,11.14-72.34,11.14-100.81,0-189.83-62.31-226.78-158.8-9.38-24.45-33.16-40.04-59.79-37.96-26.1,1.9-47.9,20.71-53.58,46.26-19.76,88.66-95.18,150.51-183.48,150.51-104.04,0-188.7-86.91-188.7-193.72,0-86.86,57.52-163.45,139.95-186.19,16.25-4.46,29.75-15.64,37.28-30.66,7.54-15.07,8.29-32.65,2.14-48.29-9.29-23.65-14.03-48.01-14.03-72.36,0-106.86,84.61-193.78,188.69-193.78,27.95,0,55.95,7.06,83.29,21.04,18.38,9.43,40.32,8.63,57.94-2.18,26.1-16.07,28.24-46.54,28.43-50.52.29-5.16.85-19.29-7.91-34.03-7.86-13.27-18.99-19.76-23.83-22.22-14.26-6.4-30.7-12.6-49.22-17.82-9.47-2.66-18.62-4.79-27.24-6.44-20.23-4.41-40.74-6.59-61.4-6.59-169.51,0-307.42,140.22-307.42,312.53,0,19.67,1.85,39.19,5.59,58.53C68.23,648.43.25,755.96.25,875.52c0,172.26,137.91,312.48,307.42,312.48,101.38,0,192.29-49.38,248.48-128.47,67.36,80.42,166.61,128.47,275.15,128.47,80.11,0,155.06-26.3,215.98-72.36,9.57-6.73,20.13-15.07,30.98-25.31,11.37-10.76,20.66-21.28,28.14-30.8" style="fill:#0f978e; stroke-width:0px;"/></g><g style="clip-path:url(#d);"><path d="m595.47,249.74c-21.51-8.34-42.31-14.13-61.07-17.68C561.07,102.74,669.28.47,831.25.47c141.79,0,261.65,98.38,296.85,231.59,20.28-4.41,40.79-6.59,61.45-6.59,169.51,0,307.32,140.22,307.32,312.53,0,19.67-1.85,39.19-5.54,58.53,102.94,51.94,170.93,159.47,170.93,279.03,0,172.26-137.91,312.48-307.42,312.48-101.38,0-192.29-49.38-248.48-128.47-14.35-20.23-33.16-52.65-42.54-96.01-4.27-19.81-5.73-37.82-5.78-53.07,8.81-23.13,30.94-38.15,55.43-38.15,1.47,0,2.89.05,4.35.19,26.15,1.9,47.9,20.71,53.58,46.26,19.76,88.67,95.22,150.51,183.53,150.51,104.03,0,188.69-86.92,188.69-193.73,0-86.86-57.56-163.45-139.95-186.19-16.25-4.46-29.8-15.64-37.33-30.71-7.54-15.07-8.29-32.6-2.14-48.29,9.33-23.55,14.03-47.91,14.03-72.32,0-106.86-84.61-193.77-188.6-193.77-28,0-56,7.06-83.29,21.04-18.38,9.39-40.27,8.63-57.89-2.18-17.63-10.71-28.43-29.85-28.47-50.52-.28-106.63-84.9-196.1-188.6-193.3-103.7,2.8-158.23,58.95-188.6,185.39-.28-5.31-1.61-15.4-7.91-26.06-7.91-13.36-19.04-19.81-23.83-22.23-4.93-2.27-10.04-4.5-15.4-6.54l-.19-.14Z" style="fill:#ff6c26; stroke-width:0px;"/></g></svg>