<?xml version="1.0" encoding="UTF-8"?><svg id="a" xmlns="http://www.w3.org/2000/svg" width="614.3" height="250" xmlns:xlink="http://www.w3.org/1999/xlink" viewBox="0 0 614.3 250"><defs><clipPath id="b"><rect y="6.8" width="219" height="236.4" style="fill:none; stroke-width:0px;"/></clipPath></defs><path d="m90.6,120c0-2.3.2-4.3.5-5.9l-39.8,2.4c-3.2-8.2-10.8-13.5-18.9-13.5-10.3,0-20,8.6-20,20s9.6,20,20,20c8.4,0,16.1-5.7,19.1-14.2,12.7-.8,27-1.6,39.7-2.4-.3-1.9-.6-4-.6-6.4h0Zm-58.2,10.6c-4.3,0-7.8-3.5-7.8-7.7s3.5-7.7,7.8-7.7,7.8,3.5,7.8,7.7-3.5,7.7-7.8,7.7Z" style="fill:#0f978e; stroke:#0f978e; stroke-miterlimit:10; stroke-width:3px;"/><g style="clip-path:url(#b);"><path d="m145.2,119.8c0-12.1-9.9-22-22-22s-22,9.9-22,22,9.9,22,22,22,22-9.9,22-22h0Zm-55.8-5.8c.9-5,2.8-9.7,5.6-13.7l-43.5-44.3c-4,2.4-8.7,3.6-13.7,3.4-12.5-.6-22.6-10.7-23.3-23.2-.8-14.6,11.3-26.7,26-25.9,12.5.7,22.5,10.8,23.1,23.3.2,5-1,9.8-3.4,13.7l43.5,44.3c5.5-3.8,12.2-6.1,19.4-6.1,6,0,11.7,1.6,16.7,4.3l22.8-28.7c-2.8-3.9-4.4-8.7-4.2-13.9.3-12,10.1-21.9,22.1-22.3,13.1-.5,23.9,10,23.9,23s-10.3,23-23,23c-3.3,0-6.5-.7-9.4-2l-22.8,28.8c5,6,8.1,13.7,8.1,22.1,0,7-2.1,13.6-5.8,19l22.8,22.6c4.1-2.7,9-4.2,14.2-4.3,7.3-.1,14.3,2.6,19.5,7.8,5.1,5,8,11.7,8.1,18.9.3,14.9-11.7,27.3-26.6,27.6h-.5c-7.1,0-13.9-2.8-19-7.8s-8-11.7-8.1-18.9c-.1-5.3,1.3-10.2,3.9-14.5l-22.8-22.6c-5.6,4-12.5,6.4-19.9,6.4s-13.9-2.2-19.4-6l-47.8,48.1c3.1,4.7,4.8,10.4,4.6,16.4-.4,14.9-12.5,27.1-27.4,27.8-16.8.7-30.7-13.1-29.9-29.9.6-14.9,12.8-26.9,27.7-27.4,6-.2,11.7,1.5,16.4,4.5l47.8-48.1c-2.7-3.9-4.6-8.3-5.6-13.1-.3-1.7-.6-3.8-.6-6.3,0-2.4.2-4.4.5-6h0ZM39.1,22.5c-6.8,0-12.4,5.5-12.4,12.4s5.5,12.3,12.4,12.3,12.4-5.5,12.4-12.3-5.5-12.4-12.4-12.4Zm153.1,25.5c0-6-4.9-10.8-10.8-10.8s-10.8,4.8-10.8,10.8,4.9,10.8,10.8,10.8,10.8-4.9,10.8-10.8Zm-2.8,151.3c8.2-.1,14.8-6.9,14.6-15.1-.1-8.1-6.8-14.6-14.9-14.6h-.3c-8.2.1-14.8,6.9-14.6,15.1.2,8.1,7,14.7,15.2,14.6h0Zm-157.5,28.7c9.1,0,16.5-7.4,16.5-16.4s-7.4-16.4-16.5-16.4-16.5,7.4-16.5,16.4,7.4,16.4,16.5,16.4Z" style="fill:#0f978e; stroke:#0f978e; stroke-miterlimit:10; stroke-width:3px;"/></g><path d="m101.6,169.6c6.8,2.9,14,4.4,21.5,4.4,8.8,0,17.5-2.1,25.3-6.2,3-1.6,6.7-.4,8.3,2.6s.4,6.7-2.6,8.2c-9.5,5-20.2,7.6-31,7.6-9.2,0-18-1.8-26.4-5.4-3.1-1.3-4.5-4.9-3.2-8,1.4-3.1,5-4.5,8.1-3.2h0Zm73.7-65c3.1,10.5,2.9,21.5-.5,31.9-1,3.2.7,6.7,3.9,7.7.6.2,1.3.3,1.9.3,2.6,0,5-1.6,5.8-4.2,4.2-12.8,4.4-26.3.6-39.1-.9-3.2-4.3-5.1-7.6-4.1-3.2.9-5.1,4.3-4.1,7.5h0Zm-27.8-40.3c1-3.2-.7-6.6-4-7.7-4.7-1.5-9.6-2.5-14.6-2.9-9.6-.8-19,.4-28,3.5-3.2,1.1-4.8,4.6-3.7,7.8.9,2.5,3.2,4.1,5.8,4.1.7,0,1.4-.1,2-.3,7.3-2.6,15-3.6,22.9-2.9,4.1.4,8.1,1.2,11.9,2.4,3.2.9,6.7-.8,7.7-4h0Z" style="fill:#ff6c26; stroke:#ff6c26; stroke-miterlimit:10; stroke-width:3px;"/><path d="m338.9,79.6c9.2,0,16.7,7.4,16.7,16.6v47.5c0,9.2-7.5,16.6-16.7,16.6h-64v-80.7h64Zm-46.6,63.2h45.7v-45.7h-45.7v45.7Z" style="fill:#ff6c26; stroke-width:0px;"/><path d="m468.4,79.6c9.2,0,16.7,7.4,16.7,16.6v64.1h-17.6v-26h-45.7v26h-17.4v-64.1c0-9.2,7.4-16.6,16.6-16.6h47.4Zm-.9,37.2v-19.7h-45.7v19.7h45.7Z" style="fill:#ff6c26; stroke-width:0px;"/><path d="m597.7,79.6c9.1,0,16.6,7.4,16.6,16.6v47.5c0,9.2-7.5,16.6-16.6,16.6h-47.5c-9.2,0-16.6-7.4-16.6-16.6v-47.5c0-9.2,7.4-16.6,16.6-16.6h47.5Zm-46.7,63.2h45.7v-45.7h-45.7v45.7Z" style="fill:#ff6c26; stroke-width:0px;"/></svg>