<?xml version="1.0" encoding="UTF-8"?><svg id="a" xmlns="http://www.w3.org/2000/svg" width="1500" height="250" xmlns:xlink="http://www.w3.org/1999/xlink" viewBox="0 0 1500 250"><defs><clipPath id="b"><rect x="439.85" y="6.81" width="219.04" height="236.38" style="fill:none; stroke-width:0px;"/></clipPath></defs><path d="m530.43,119.98c-.01-2.28.21-4.29.5-5.94l-39.79,2.36c-3.21-8.16-10.79-13.53-18.92-13.54-10.32,0-19.98,8.63-19.98,19.96s9.61,19.97,19.98,19.96c8.37-.01,16.14-5.67,19.12-14.17,12.67-.78,27.04-1.57,39.71-2.36-.34-1.72-.61-3.85-.62-6.28h0Zm-58.21,10.6c-4.28,0-7.76-3.47-7.76-7.75s3.48-7.75,7.76-7.75,7.76,3.47,7.76,7.75-3.48,7.75-7.76,7.75Z" style="fill:#0f978e; stroke:#0f978e; stroke-miterlimit:10; stroke-width:3px;"/><g style="clip-path:url(#b);"><path d="m584.96,119.82c0-12.11-9.87-21.97-21.99-21.97s-21.99,9.85-21.99,21.97,9.87,21.97,21.99,21.97,21.99-9.85,21.99-21.97h0Zm-55.76-5.86c.86-5.04,2.83-9.7,5.64-13.73l-43.47-44.32c-4,2.36-8.72,3.62-13.74,3.37-12.49-.64-22.59-10.68-23.27-23.15-.81-14.64,11.3-26.72,25.96-25.9,12.5.71,22.55,10.83,23.15,23.32.24,5.03-1.05,9.75-3.43,13.75l43.46,44.31c5.52-3.82,12.22-6.06,19.43-6.06,6.05,0,11.74,1.58,16.68,4.34l22.77-28.74c-2.78-3.92-4.37-8.75-4.22-13.95.35-12.05,10.09-21.87,22.14-22.32,13.11-.49,23.93,10.01,23.93,23s-10.34,23.02-23.05,23.02c-3.33,0-6.51-.72-9.37-1.99l-22.78,28.76c5.05,5.96,8.11,13.66,8.11,22.06,0,7.04-2.14,13.59-5.81,19.03l22.81,22.62c4.11-2.66,8.99-4.24,14.23-4.33,7.33-.12,14.25,2.64,19.47,7.76,5.11,5.01,7.99,11.7,8.12,18.86.26,14.94-11.69,27.3-26.65,27.55h-.48c-7.14,0-13.89-2.76-18.99-7.76-5.11-5.01-7.99-11.7-8.12-18.86-.09-5.28,1.35-10.24,3.9-14.46l-22.81-22.62c-5.61,4.02-12.49,6.39-19.9,6.39s-13.87-2.22-19.38-6.02l-47.79,48.06c3.06,4.71,4.77,10.37,4.59,16.43-.44,14.94-12.46,27.11-27.4,27.76-16.82.73-30.67-13.1-29.94-29.9.65-14.89,12.77-26.88,27.68-27.38,6.04-.2,11.69,1.47,16.41,4.49l47.78-48.06c-2.71-3.86-4.63-8.3-5.56-13.09-.34-1.73-.61-3.85-.62-6.28-.01-2.28.21-4.29.5-5.95h.02Zm-50.26-91.47c-6.82,0-12.37,5.54-12.37,12.35s5.55,12.35,12.37,12.35,12.37-5.54,12.37-12.35-5.55-12.35-12.37-12.35Zm153.1,25.49c0-5.96-4.86-10.8-10.82-10.8s-10.82,4.85-10.82,10.8,4.86,10.8,10.82,10.8,10.82-4.85,10.82-10.8Zm-2.85,151.3c8.21-.14,14.77-6.93,14.64-15.14-.14-8.06-6.82-14.62-14.89-14.62h-.27c-8.21.14-14.78,6.93-14.64,15.14.14,8.15,6.97,14.76,15.15,14.62h0Zm-157.47,28.77c9.08,0,16.47-7.38,16.47-16.45s-7.39-16.45-16.47-16.45-16.47,7.38-16.47,16.45,7.39,16.45,16.47,16.45Z" style="fill:#0f978e; stroke:#0f978e; stroke-miterlimit:10; stroke-width:3px;"/></g><path d="m541.44,169.6c6.8,2.94,14.04,4.43,21.52,4.43,8.79,0,17.53-2.15,25.25-6.22,2.99-1.57,6.69-.42,8.26,2.56,1.57,2.98.42,6.67-2.56,8.25-9.47,4.99-20.18,7.62-30.95,7.62-9.16,0-18.04-1.82-26.38-5.43-3.1-1.34-4.52-4.94-3.18-8.03,1.34-3.09,4.94-4.52,8.04-3.18h0Zm73.62-64.95c3.07,10.47,2.9,21.51-.49,31.93-1.04,3.21.71,6.66,3.92,7.69.62.21,1.26.3,1.89.3,2.58,0,4.97-1.64,5.81-4.22,4.16-12.77,4.36-26.3.6-39.14-.95-3.24-4.34-5.09-7.59-4.15-3.24.95-5.1,4.34-4.15,7.58h0Zm-27.78-40.38c1.03-3.21-.74-6.65-3.96-7.68-4.71-1.51-9.61-2.49-14.57-2.92-9.59-.84-19.01.36-28.01,3.55-3.18,1.13-4.84,4.62-3.71,7.8.89,2.51,3.24,4.06,5.76,4.06.67,0,1.37-.11,2.04-.35,7.34-2.6,15.02-3.57,22.85-2.89,4.06.36,8.06,1.16,11.9,2.39,3.22,1.03,6.66-.74,7.69-3.95h0Z" style="fill:#ff6c26; stroke:#ff6c26; stroke-miterlimit:10; stroke-width:3px;"/><path d="m778.7,79.64c9.18,0,16.69,7.39,16.69,16.58v47.49c0,9.18-7.5,16.58-16.69,16.58h-63.95v-80.64h63.95Zm-46.59,63.17h45.7v-45.7h-45.7v45.7Z" style="fill:#ff6c26; stroke-width:0px;"/><path d="m908.17,79.64c9.18,0,16.69,7.39,16.69,16.58v64.06h-17.58v-25.98h-45.7v25.98h-17.36v-64.06c0-9.18,7.39-16.58,16.58-16.58h47.38Zm-.9,37.18v-19.71h-45.7v19.71h45.7Z" style="fill:#ff6c26; stroke-width:0px;"/><path d="m1037.53,79.64c9.07,0,16.58,7.39,16.58,16.58v47.49c0,9.18-7.5,16.58-16.58,16.58h-47.49c-9.18,0-16.58-7.39-16.58-16.58v-47.49c0-9.18,7.39-16.58,16.58-16.58h47.49Zm-46.7,63.17h45.7v-45.7h-45.7v45.7Z" style="fill:#ff6c26; stroke-width:0px;"/></svg>