<?xml version="1.0" encoding="UTF-8"?><svg id="a" xmlns="http://www.w3.org/2000/svg" xmlns:xlink="http://www.w3.org/1999/xlink" viewBox="0 0 972 368"><defs><clipPath id="b"><rect width="341" height="368" style="fill:none; stroke-width:0px;"/></clipPath></defs><path d="m139.96,175.72c-.02-3.65.34-6.86.8-9.51l-63.68,3.78c-5.13-13.05-17.26-21.65-30.27-21.66-16.52-.01-31.98,13.81-31.98,31.94s15.37,31.96,31.98,31.94c13.4-.02,25.82-9.08,30.6-22.67,20.28-1.25,43.27-2.52,63.55-3.78-.54-2.76-.98-6.16-1-10.05Zm-93.15,16.96c-6.85,0-12.42-5.56-12.42-12.4s5.57-12.4,12.42-12.4,12.41,5.56,12.41,12.4-5.57,12.4-12.41,12.4Z" style="fill:#0f978e; stroke-width:0px;"/><g style="clip-path:url(#b);"><path d="m227.22,175.46c0-19.38-15.79-35.15-35.19-35.15s-35.19,15.77-35.19,35.15,15.79,35.16,35.19,35.16,35.19-15.77,35.19-35.16Zm-89.22-9.38c1.38-8.06,4.53-15.52,9.03-21.97l-69.56-70.92c-6.4,3.77-13.95,5.8-21.99,5.39-19.98-1.02-36.15-17.09-37.24-37.05C16.95,18.11,36.33-1.22,59.78.09c20.01,1.13,36.08,17.33,37.04,37.32.39,8.05-1.68,15.61-5.49,22l69.55,70.91c8.84-6.11,19.55-9.7,31.09-9.7,9.68,0,18.79,2.53,26.69,6.95l36.43-45.99c-4.45-6.28-6.99-14-6.76-22.32.56-19.28,16.14-34.99,35.43-35.72,20.98-.79,38.3,16.02,38.3,36.81s-16.55,36.83-36.88,36.83c-5.33,0-10.41-1.15-14.99-3.19l-36.45,46.02c8.08,9.54,12.97,21.86,12.97,35.3,0,11.27-3.42,21.74-9.29,30.45l36.5,36.2c6.57-4.26,14.38-6.78,22.77-6.93,11.73-.19,22.81,4.22,31.16,12.41,8.18,8.02,12.79,18.73,12.99,30.18.42,23.9-18.71,43.68-42.64,44.09-.26,0-.52,0-.77,0-11.43,0-22.23-4.41-30.39-12.41-8.18-8.02-12.79-18.73-12.99-30.18-.15-8.45,2.16-16.39,6.24-23.14l-36.5-36.2c-8.98,6.43-19.98,10.22-31.84,10.22s-22.19-3.56-31.01-9.64l-76.47,76.91c4.9,7.54,7.64,16.59,7.34,26.29-.71,23.9-19.94,43.38-43.85,44.42-26.92,1.17-49.08-20.96-47.91-47.84,1.04-23.82,20.43-43.01,44.29-43.81,9.67-.32,18.71,2.35,26.26,7.18l76.46-76.91c-4.33-6.18-7.41-13.28-8.89-20.95-.54-2.77-.98-6.16-1-10.05-.02-3.65.34-6.86.8-9.52h0ZM57.57,19.71c-10.91,0-19.79,8.86-19.79,19.77s8.88,19.76,19.79,19.76,19.79-8.86,19.79-19.76-8.88-19.77-19.79-19.77Zm244.99,40.79c0-9.53-7.77-17.29-17.31-17.29s-17.31,7.76-17.31,17.29,7.77,17.29,17.31,17.29,17.31-7.76,17.31-17.29Zm-4.56,242.11c13.14-.23,23.64-11.09,23.42-24.22-.22-12.9-10.91-23.39-23.82-23.39h-.43c-13.14.23-23.65,11.09-23.42,24.22.23,13.04,11.16,23.62,24.24,23.39h0Zm-251.99,46.03c14.53,0,26.35-11.81,26.35-26.32s-11.82-26.32-26.35-26.32-26.35,11.81-26.35,26.32,11.82,26.32,26.35,26.32Z" style="fill:#0f978e; stroke-width:0px;"/></g><path d="m157.58,255.11c10.88,4.7,22.47,7.09,34.44,7.09,14.07,0,28.05-3.44,40.41-9.95,4.78-2.51,10.7-.68,13.22,4.09,2.52,4.77.68,10.68-4.1,13.2-15.16,7.98-32.29,12.2-49.53,12.2-14.66,0-28.86-2.92-42.21-8.69-4.96-2.14-7.23-7.9-5.09-12.85,2.15-4.95,7.9-7.23,12.86-5.09Zm117.81-103.94c4.91,16.75,4.64,34.42-.79,51.09-1.67,5.14,1.14,10.65,6.28,12.31,1,.33,2.02.48,3.03.48,4.13,0,7.96-2.63,9.3-6.76,6.65-20.43,6.98-42.08.96-62.63-1.52-5.18-6.95-8.15-12.14-6.64-5.18,1.52-8.16,6.95-6.64,12.13Zm-44.45-64.61c1.65-5.14-1.19-10.64-6.33-12.29-7.53-2.41-15.38-3.99-23.32-4.68-15.34-1.34-30.42.57-44.82,5.68-5.09,1.81-7.75,7.39-5.94,12.48,1.42,4.01,5.19,6.5,9.22,6.5,1.08,0,2.19-.18,3.27-.56,11.74-4.16,24.04-5.72,36.57-4.63,6.49.57,12.9,1.85,19.05,3.82,5.15,1.65,10.66-1.18,12.3-6.32h0Z" style="fill:#ff6c26; stroke-width:0px;"/><path d="m433,249V121h101.52c4.85,0,9.26,1.19,13.23,3.56,3.98,2.37,7.18,5.55,9.61,9.52,2.42,3.97,3.64,8.38,3.64,13.25v75.37c0,4.74-1.22,9.13-3.64,13.16-2.43,4.02-5.63,7.22-9.61,9.59-3.97,2.37-8.38,3.56-13.23,3.56h-101.52Zm27-28h73v-73h-73v73Z" style="fill:#ff6c26; stroke-width:0px;"/><path d="m639,249v-101.67c0-4.87,1.19-9.28,3.56-13.25,2.37-3.98,5.56-7.15,9.59-9.52,4.04-2.37,8.42-3.56,13.17-3.56h75.21c4.85,0,9.26,1.19,13.23,3.56,3.98,2.37,7.18,5.55,9.61,9.52,2.42,3.97,3.64,8.38,3.64,13.25v101.67h-28v-41h-73v41h-27Zm27-69h73v-31h-73v31Z" style="fill:#ff6c26; stroke-width:0px;"/><path d="m870.31,249c-4.74,0-9.13-1.19-13.17-3.56-4.02-2.37-7.22-5.56-9.59-9.59-2.37-4.03-3.56-8.42-3.56-13.16v-75.37c0-4.87,1.19-9.28,3.56-13.25,2.37-3.98,5.56-7.15,9.59-9.52,4.04-2.37,8.42-3.56,13.17-3.56h75.38c4.74,0,9.09,1.19,13.06,3.56,3.98,2.37,7.18,5.55,9.61,9.52,2.42,3.97,3.64,8.38,3.64,13.25v75.37c0,4.74-1.22,9.13-3.64,13.16-2.43,4.02-5.63,7.22-9.61,9.59-3.97,2.37-8.32,3.56-13.06,3.56h-75.38Zm1.69-28h73v-73h-73v73Z" style="fill:#ff6c26; stroke-width:0px;"/></svg>