<?xml version="1.0" encoding="UTF-8"?><svg id="a" xmlns="http://www.w3.org/2000/svg" xmlns:xlink="http://www.w3.org/1999/xlink" viewBox="0 0 1774 1916"><defs><clipPath id="b"><rect width="1774" height="1916" style="fill:none; stroke-width:0px;"/></clipPath></defs><path d="m728.34,914.61c-.1-19.01,1.75-35.73,4.16-49.53l-331.29,19.7c-26.66-67.97-89.79-112.7-157.46-112.74-85.94-.07-166.36,71.9-166.36,166.3s79.96,166.41,166.36,166.3c69.7-.08,134.31-47.29,159.19-118.03,105.51-6.52,225.09-13.14,330.6-19.66-2.81-14.39-5.09-32.08-5.2-52.34Zm-484.59,88.28c-35.61,0-64.58-28.96-64.58-64.56s28.98-64.56,64.58-64.56,64.58,28.96,64.58,64.56-28.97,64.56-64.58,64.56Z" style="fill:#0f978e; stroke-width:0px;"/><g style="clip-path:url(#b);"><path d="m1182.29,913.28c0-100.92-82.14-183.02-183.09-183.02s-183.09,82.1-183.09,183.02,82.14,183.03,183.09,183.03,183.09-82.11,183.09-183.03Zm-464.29-48.8c7.17-41.95,23.54-80.79,46.96-114.4l-361.9-369.25c-33.3,19.64-72.57,30.19-114.41,28.05-103.98-5.33-188.05-89.01-193.74-192.92C88.26,94.02,189.06-6.64,311.07.21c104.08,5.85,187.72,90.21,192.71,194.32,2.01,41.94-8.72,81.26-28.57,114.55l361.83,369.19c45.97-31.81,101.72-50.48,161.74-50.48,50.38,0,97.74,13.16,138.85,36.2l189.52-239.48c-23.16-32.7-36.39-72.89-35.14-116.2,2.92-100.36,83.96-182.16,184.33-185.97,109.14-4.13,199.25,83.42,199.25,191.63s-86.06,191.77-191.82,191.77c-27.75,0-54.13-5.98-77.97-16.63l-189.64,239.61c42.06,49.63,67.48,113.81,67.48,183.8,0,58.64-17.81,113.18-48.34,158.52l189.88,188.5c34.2-22.15,74.78-35.32,118.44-36.08,61.05-1.01,118.67,21.98,162.11,64.6,42.54,41.74,66.53,97.53,67.56,157.11,2.17,124.41-97.32,227.42-221.8,229.59-1.33.02-2.68.03-3.99.03-59.47,0-115.64-22.96-158.11-64.64-42.53-41.73-66.52-97.53-67.56-157.11-.77-44.01,11.2-85.34,32.48-120.47l-189.9-188.52c-46.7,33.49-103.92,53.23-165.65,53.23s-115.43-18.55-161.32-50.2l-397.8,400.43c25.46,39.24,39.73,86.38,38.2,136.88-3.73,124.41-103.72,225.81-228.12,231.24-140.05,6.11-255.33-109.1-249.26-249.1,5.39-124.04,106.29-223.89,230.41-228.07,50.31-1.7,97.34,12.25,136.57,37.35l397.77-400.4c-22.52-32.16-38.55-69.16-46.21-109.1-2.8-14.39-5.09-32.08-5.2-52.34-.1-19.01,1.75-35.73,4.17-49.54v.04ZM299.74,102.36c-56.77,0-102.93,46.15-102.93,102.9s46.16,102.89,102.93,102.89,102.93-46.16,102.93-102.89-46.16-102.9-102.93-102.9Zm1274.52,212.35c0-49.63-40.4-90.03-90.06-90.03s-90.06,40.38-90.06,90.03,40.4,90.03,90.06,90.03,90.06-40.38,90.06-90.03Zm-24.09,1259.08c68.35-1.2,122.99-57.77,121.81-126.1-1.17-67.15-56.77-121.79-123.91-121.79-.73,0-1.49,0-2.22.02-68.36,1.2-123,57.75-121.82,126.08,1.18,67.9,58.08,122.98,126.15,121.77l-.02.02Zm-1310.61,241.1c75.6,0,137.08-61.48,137.08-137.04s-61.5-137.04-137.08-137.04-137.09,61.48-137.09,137.04,61.5,137.04,137.09,137.04Z" style="fill:#0f978e; stroke-width:0px;"/></g><path d="m820.02,1327.95c56.63,24.48,116.91,36.91,179.18,36.91,73.23,0,145.95-17.9,210.26-51.79,24.87-13.09,55.65-3.56,68.74,21.29,13.1,24.86,3.57,55.61-21.3,68.72-78.88,41.55-168,63.52-257.7,63.52-76.25,0-150.13-15.23-219.59-45.27-25.79-11.15-37.66-41.09-26.51-66.89,11.15-25.78,41.11-37.64,66.91-26.49Zm612.89-541.16c25.55,87.22,24.14,179.21-4.09,266.03-8.69,26.72,5.93,55.42,32.67,64.1,5.22,1.7,10.52,2.51,15.74,2.51,21.46,0,41.4-13.66,48.39-35.16,34.57-106.36,36.29-219.13,4.96-326.07-7.9-26.96-36.16-42.41-63.14-34.53-26.97,7.89-42.44,36.15-34.53,63.11Zm-231.25-336.38c8.58-26.75-6.16-55.4-32.92-63.97-39.16-12.56-79.98-20.77-121.31-24.39-79.8-6.97-158.24,2.96-233.16,29.56-26.49,9.4-40.33,38.48-30.93,64.96,7.41,20.85,27.03,33.86,47.97,33.86,5.64,0,11.4-.94,17.02-2.93,61.06-21.68,125.08-29.8,190.24-24.08,33.8,2.97,67.13,9.66,99.09,19.9,26.76,8.59,55.42-6.14,63.99-32.9l.02-.02Z" style="fill:#ff6c26; stroke-width:0px;"/></svg>