<?xml version="1.0" encoding="UTF-8"?><svg id="a" xmlns="http://www.w3.org/2000/svg" xmlns:xlink="http://www.w3.org/1999/xlink" viewBox="0 0 1897 1188"><defs><clipPath id="b"><rect x="428" width="1469" height="1188" style="fill:none; stroke-width:0px;"/></clipPath><clipPath id="c"><rect width="1469" height="1188" style="fill:none; stroke-width:0px;"/></clipPath></defs><g style="clip-path:url(#b);"><path d="m1811.08,206.03l-165.2-166.17L1606.28,0h-888l-39.62,39.85-165.2,166.17-85.93,86.46,77.25,94.26,328.39,400.66,87.3-106.52-311.21-379.69,165.21-166.19h775.59l165.21,166.19-552.99,674.69-99.62-121.53-87.3,106.51,82.41,100.57,104.5,127.48,104.49-127.48,553-674.69,77.26-94.26-85.94-86.46" style="fill:#0f978e; stroke-width:0px;"/></g><g style="clip-path:url(#c);"><path d="m1354,177h-190.46l122.94,123.74-552.64,674.24L181.2,300.74l165.1-165.74h178.29L658.8,0h-368.67l-39.58,39.83L85.46,205.89-.43,292.29l77.21,94.2,552.65,674.24,104.42,127.4,104.41-127.4,552.65-674.24,77.21-94.2-85.87-86.4-28.41-28.58" style="fill:#ff6c26; stroke-width:0px;"/></g></svg>