<?xml version="1.0" encoding="UTF-8"?><svg id="a" xmlns="http://www.w3.org/2000/svg" width="1500" height="250" xmlns:xlink="http://www.w3.org/1999/xlink" viewBox="0 0 1500 250"><defs><clipPath id="b"><rect x="61.87" y="54" width="177" height="142" style="fill:none; stroke-width:0px;"/></clipPath><clipPath id="c"><rect x="10.87" y="54" width="177" height="142" style="fill:none; stroke-width:0px;"/></clipPath></defs><g style="clip-path:url(#b);"><path d="m228.19,78.42l-19.69-19.7-2.97-2.97c-1.12-1.12-2.65-1.75-4.24-1.75h-100.87c-1.59,0-3.11.63-4.24,1.75l-2.97,2.97-19.69,19.7-6.4,6.4c-2.18,2.18-2.35,5.66-.38,8.04l5.75,6.97,34.52,41.88c2.4,2.91,6.85,2.91,9.24,0l2.65-3.21c1.82-2.21,1.83-5.41,0-7.62l-30.49-36.99c-1.96-2.38-1.8-5.86.39-8.04l14.09-14.1c1.12-1.12,2.65-1.76,4.24-1.76h87.48c1.59,0,3.11.63,4.24,1.76l14.09,14.1c2.18,2.18,2.35,5.66.39,8.04l-57.83,70.15c-2.4,2.91-6.85,2.91-9.24,0l-2.63-3.19c-2.39-2.91-6.85-2.91-9.24,0l-2.64,3.21c-1.82,2.21-1.83,5.41,0,7.62l6.68,8.11,7.83,9.5c2.4,2.91,6.85,2.91,9.24,0l7.83-9.5,65.91-79.96,5.75-6.97c1.96-2.38,1.8-5.86-.39-8.05l-6.4-6.4" style="fill:#0f978e; stroke-width:0px;"/></g><g style="clip-path:url(#c);"><path d="m171.28,75h-6.02c-5.53,0-8.3,6.69-4.39,10.6h0c2.26,2.26,2.43,5.87.4,8.34l-57.17,69.36c-2.48,3.01-7.1,3.01-9.59,0l-57.17-69.36c-2.03-2.47-1.86-6.08.4-8.34l13.77-13.78c1.16-1.17,2.75-1.82,4.39-1.82h15.71c1.65,0,3.23-.65,4.39-1.82l3.58-3.58c3.91-3.91,1.14-10.6-4.39-10.6h-26.72c-1.65,0-3.23.65-4.39,1.82l-2.95,2.95-19.86,19.87-6.35,6.35c-2.26,2.26-2.44,5.87-.4,8.34l5.71,6.93,66.51,80.69,7.78,9.43c2.48,3.01,7.1,3.01,9.58,0l7.77-9.43,66.51-80.69,5.73-6.96c2.02-2.46,1.86-6.04-.37-8.31l-8.03-8.14c-1.17-1.18-2.76-1.85-4.42-1.85Z" style="fill:#ff6c26; stroke-width:0px;"/></g><path d="m292.76,79.53h17.36v63.28h63.28v17.47h-80.64v-80.75Z" style="fill:#0f978e; stroke-width:0px;"/><path d="m380.01,79.64h17.47v80.64h-17.47v-80.64Z" style="fill:#0f978e; stroke-width:0px;"/><path d="m484.95,142.81h9.18v17.47h-73.25c-9.18,0-16.58-7.39-16.58-16.58v-47.49c0-9.18,7.39-16.58,16.58-16.58h47.38c9.18,0,16.69,7.39,16.69,16.58v46.59Zm-63.28,0h45.7v-45.7h-45.7v45.7Z" style="fill:#0f978e; stroke-width:0px;"/><path d="m520.68,142.81h45.7v-63.17h17.58v64.06c0,9.18-7.5,16.58-16.58,16.58h-47.49c-9.18,0-16.58-7.39-16.58-16.58v-64.06h17.36v63.17Z" style="fill:#0f978e; stroke-width:0px;"/><path d="m596.39,79.64h17.47v80.64h-17.47v-80.64Z" style="fill:#0f978e; stroke-width:0px;"/><path d="m685.09,79.64c9.18,0,16.69,7.39,16.69,16.58v47.49c0,9.18-7.5,16.58-16.69,16.58h-63.95v-80.64h63.95Zm-46.59,63.17h45.7v-45.7h-45.7v45.7Z" style="fill:#0f978e; stroke-width:0px;"/><path d="m714.43,79.64h17.47v80.64h-17.47v-80.64Z" style="fill:#0f978e; stroke-width:0px;"/><path d="m817.81,79.64v17.47h-31.58v63.17h-17.47v-63.17h-31.58v-17.47h80.64Z" style="fill:#0f978e; stroke-width:0px;"/><path d="m914.01,79.64l-37.41,50.62v30.02h-17.47v-30.13l-14.67-19.71c-7.06-9.41-16.35-22.18-22.62-30.8h20.72l25.31,31.81c8.18-10.3,17.14-21.5,25.2-31.81h20.94Z" style="fill:#0f978e; stroke-width:0px;"/><path d="m994.32,111.34c0,1.9-.22,3.7-.78,5.15,2.24,2.8,3.92,6.72,3.92,10.53v16.69c0,9.18-7.5,16.58-16.69,16.58h-63.95v-80.64h60.93c9.07,0,16.58,7.39,16.58,16.58v15.12Zm-60.14-.78h42.56v-13.44h-42.56v13.44Zm0,32.26h45.7v-14.78h-45.7v14.78Z" style="fill:#ff6c26; stroke-width:0px;"/><path d="m1073.83,79.64c9.18,0,16.69,7.39,16.69,16.58v64.06h-17.58v-25.98h-45.7v25.98h-17.36v-64.06c0-9.18,7.39-16.58,16.58-16.58h47.38Zm-.9,37.18v-19.71h-45.7v19.71h45.7Z" style="fill:#ff6c26; stroke-width:0px;"/><path d="m1120.65,97.11v45.7h63.06v17.47h-63.84c-9.18,0-16.58-7.39-16.58-16.58v-47.49c0-9.18,7.39-16.58,16.58-16.58h63.84v17.47h-63.06Z" style="fill:#ff6c26; stroke-width:0px;"/><path d="m1273.31,79.64v6.05l-28.78,34.27c9.41,11.31,19.38,23.07,28.78,34.27v6.05h-18.14l-26.43-31.58h-15.79v31.58h-17.47v-80.64h17.47v31.58h15.79c3.36-3.92,6.72-7.95,10.08-11.98l16.35-19.6h18.14Z" style="fill:#ff6c26; stroke-width:0px;"/><path d="m1284.73,79.64h17.47v80.64h-17.47v-80.64Z" style="fill:#ff6c26; stroke-width:0px;"/><path d="m1372.31,79.64h17.58v80.64h-17.92l-45.36-53.98v53.98h-17.36v-80.64h17.92l45.14,53.76v-53.76Z" style="fill:#ff6c26; stroke-width:0px;"/><path d="m1483.08,103.83h-17.58v-6.72h-45.7v45.7h45.7v-12.1h-17.47v-17.47h35.06v30.46c0,9.18-7.5,16.58-16.69,16.58h-47.38c-9.18,0-16.58-7.39-16.58-16.58v-47.49c0-9.18,7.39-16.58,16.58-16.58h47.38c9.18,0,16.69,7.39,16.69,16.58v7.62Z" style="fill:#ff6c26; stroke-width:0px;"/></svg>