<?xml version="1.0" encoding="UTF-8"?><svg id="a" xmlns="http://www.w3.org/2000/svg" xmlns:xlink="http://www.w3.org/1999/xlink" viewBox="0 0 1489 142"><defs><clipPath id="b"><rect x="51" width="177" height="142" style="fill:none; stroke-width:0px;"/></clipPath><clipPath id="c"><rect width="177" height="142" style="fill:none; stroke-width:0px;"/></clipPath></defs><g style="clip-path:url(#b);"><path d="m217.32,24.42l-19.69-19.7-4.72-4.72h-105.83l-4.72,4.72-19.69,19.7-10.24,10.25,9.21,11.17,39.14,47.48,10.41-12.62-37.09-45,19.69-19.7h92.44l19.69,19.7-65.91,79.96-11.87-14.41-10.41,12.62,9.82,11.92,12.45,15.11,12.45-15.11,65.91-79.96,9.21-11.17-10.25-10.25" style="fill:#0f978e; stroke-width:0px;"/></g><path d="m281,106V24h18v65h64v17h-82Z" style="fill:#0f978e; stroke-width:0px;"/><path d="m367,106V24h17v82h-17Z" style="fill:#0f978e; stroke-width:0px;"/><path d="m458,106v-16.61l17.62-1.39h9.38v18h-27Zm-47.15,0c-3.03,0-5.85-.75-8.44-2.27-2.58-1.52-4.63-3.57-6.15-6.15-1.51-2.59-2.27-5.4-2.27-8.44v-48.29c0-3.1.75-5.92,2.27-8.46,1.52-2.55,3.57-4.58,6.15-6.11,2.59-1.52,5.4-2.29,8.44-2.29h48.27c3.04,0,5.84.76,8.37,2.29,2.55,1.53,4.6,3.56,6.15,6.11,1.56,2.54,2.35,5.36,2.35,8.46v48.29c0,3.03-.78,5.85-2.35,8.44-1.55,2.58-3.61,4.63-6.15,6.15-2.54,1.51-5.33,2.27-8.37,2.27h-48.27Zm.15-17h47v-47h-47v47Z" style="fill:#0f978e; stroke-width:0px;"/><path d="m511.85,106c-3.03,0-5.85-.75-8.44-2.27-2.58-1.52-4.63-3.57-6.15-6.15-1.51-2.59-2.27-5.4-2.27-8.44V24h17v64h47V24h18v65.15c0,3.03-.78,5.85-2.35,8.44-1.55,2.58-3.61,4.63-6.15,6.15-2.54,1.51-5.33,2.27-8.37,2.27h-48.27Z" style="fill:#0f978e; stroke-width:0px;"/><path d="m587,106V24h17v82h-17Z" style="fill:#0f978e; stroke-width:0px;"/><path d="m614,106V24h65.04c3.12,0,5.94.76,8.48,2.29,2.55,1.53,4.6,3.56,6.15,6.11,1.55,2.54,2.33,5.36,2.33,8.46v48.29c0,3.03-.78,5.85-2.33,8.44-1.55,2.58-3.61,4.63-6.15,6.15-2.54,1.51-5.36,2.27-8.48,2.27h-65.04Zm17-17h47v-47h-47v47Z" style="fill:#0f978e; stroke-width:0px;"/><path d="m706,106V24h17v82h-17Z" style="fill:#0f978e; stroke-width:0px;"/><path d="m761,106V42h-32v-18h82v18h-32v64h-18Z" style="fill:#0f978e; stroke-width:0px;"/><path d="m851,106v-30.63l-38.47-51.37h21.35l26.11,32.36,25.99-32.36h21.6l-38.59,51.47v30.53h-18Z" style="fill:#0f978e; stroke-width:0px;"/><g style="clip-path:url(#c);"><path d="m163,21h-23.6l14.58,14.59-65.55,79.53L22.88,35.59l19.58-19.59h20.86L79.32,0h-44.29l-4.77,4.77L10.4,24.64.06,34.98l9.29,11.28,66.51,80.69,12.57,15.24,12.56-15.24,66.51-80.69,9.29-11.28-10.33-10.34-3.42-3.42" style="fill:#ff6c26; stroke-width:0px;"/></g><path d="m912,106V24h63.2c2.85,0,5.47.77,7.85,2.29,2.39,1.53,4.31,3.57,5.77,6.13,1.45,2.54,2.18,5.37,2.18,8.48v15.42c0,.99-.05,1.93-.16,2.81-.11.88-.3,1.69-.58,2.44,1.06,1.45,1.95,3.12,2.67,5.02.71,1.91,1.07,3.81,1.07,5.71v16.86c0,3.03-.78,5.85-2.35,8.44-1.55,2.58-3.61,4.63-6.15,6.15-2.54,1.51-5.36,2.27-8.48,2.27h-65.02Zm18-18h47v-15h-47v15Zm0-32h43v-14h-43v14Z" style="fill:#ff6c26; stroke-width:0px;"/><path d="m1007,106V40.85c0-3.1.75-5.92,2.27-8.46,1.52-2.55,3.58-4.58,6.15-6.11,2.59-1.52,5.4-2.29,8.44-2.29h48.18c3.12,0,5.94.76,8.48,2.29,2.55,1.53,4.6,3.56,6.15,6.11,1.55,2.54,2.33,5.36,2.33,8.46v65.15h-17v-26h-47v26h-18Zm18-44h47v-20h-47v20Z" style="fill:#ff6c26; stroke-width:0px;"/><path d="m1118.9,106c-3.13,0-5.97-.75-8.52-2.27-2.54-1.52-4.58-3.55-6.11-6.09-1.52-2.55-2.27-5.38-2.27-8.5v-48.29c0-3.1.76-5.92,2.27-8.46,1.53-2.55,3.56-4.58,6.11-6.11,2.55-1.52,5.4-2.29,8.52-2.29h65.1v18h-60.25c-1.22,0-2.15.31-2.8.92-.64.62-.95,1.58-.95,2.88v39.39c0,1.23.32,2.18.95,2.84.65.65,1.58.97,2.8.97h60.25v17h-65.1Z" style="fill:#ff6c26; stroke-width:0px;"/><path d="m1196,106V24h18v32h16.27l27.22-32h18.51v6.15l-29.26,34.85,29.26,34.85v6.15h-18.51l-27.22-32h-16.27v32h-18Z" style="fill:#ff6c26; stroke-width:0px;"/><path d="m1285,106V24h17v82h-17Z" style="fill:#ff6c26; stroke-width:0px;"/><path d="m1312,106V24h17.79l46.21,54.67V24h18v82h-16.93l-47.07-54.88v54.88h-18Z" style="fill:#ff6c26; stroke-width:0px;"/><path d="m1423.86,106c-3.03,0-5.85-.76-8.44-2.27-2.58-1.53-4.63-3.59-6.15-6.17-1.51-2.6-2.27-5.42-2.27-8.47v-48.19c0-3.11.76-5.94,2.27-8.48,1.53-2.55,3.58-4.59,6.17-6.13,2.59-1.53,5.42-2.29,8.46-2.29h48.03c3.14,0,5.99.78,8.54,2.32,2.56,1.55,4.63,3.62,6.2,6.21,1.56,2.58,2.34,5.44,2.34,8.59v7.88h-18v-7h-47v47h47v-13h-18v-18h36v31.09c0,3.04-.78,5.87-2.33,8.47-1.55,2.59-3.61,4.64-6.15,6.17-2.54,1.52-5.36,2.27-8.48,2.27h-48.18Z" style="fill:#ff6c26; stroke-width:0px;"/></svg>