<?xml version="1.0" encoding="UTF-8"?><svg id="a" xmlns="http://www.w3.org/2000/svg" width="162.77" height="156.37" xmlns:xlink="http://www.w3.org/1999/xlink" viewBox="0 0 162.77 156.37"><defs><linearGradient id="b" x1="79.17" y1="25.6" x2="79.17" y2="17.31" gradientUnits="userSpaceOnUse"><stop offset="0" stop-color="#ffa748"/><stop offset="1" stop-color="#ff5b1a"/></linearGradient><linearGradient id="c" x1="76.12" y1="25.73" x2="74.03" y2=".22" gradientTransform="translate(1.08 -5.21) rotate(4)" xlink:href="#b"/><linearGradient id="d" x1="72.31" y1="26.15" x2="69.98" y2="10.88" gradientTransform="translate(3.24 -9.72) rotate(8)" xlink:href="#b"/><linearGradient id="e" x1="68.55" y1="26.88" x2="67.08" y2="20.21" gradientTransform="translate(6.34 -13.57) rotate(11.99)" xlink:href="#b"/><linearGradient id="f" x1="64.76" y1="27.53" x2="61.81" y2="16.99" gradientTransform="translate(8.6 -16.58) rotate(16)" xlink:href="#b"/><linearGradient id="g" x1="61.35" y1="28.98" x2="59.42" y2="23.94" gradientTransform="translate(12.63 -19.04) rotate(20)" xlink:href="#b"/><linearGradient id="h" x1="57.76" y1="30.05" x2="53.11" y2="20.05" gradientTransform="translate(14.96 -20.37) rotate(24)" xlink:href="#b"/><linearGradient id="i" x1="54.4" y1="32.04" x2="50.99" y2="25.52" gradientTransform="translate(19.6 -21.35) rotate(27.99)" xlink:href="#b"/><linearGradient id="j" x1="51.12" y1="33.86" x2="44.61" y2="23.39" gradientTransform="translate(22.44 -21.01) rotate(32)" xlink:href="#b"/><linearGradient id="k" x1="48.14" y1="35.88" x2="32.55" y2="14.94" gradientTransform="translate(22.68 -18.87) rotate(36)" xlink:href="#b"/><linearGradient id="l" x1="44.74" y1="38.17" x2="33.57" y2="24.37" gradientTransform="translate(29.25 -17.85) rotate(40)" xlink:href="#b"/><linearGradient id="m" x1="42.18" y1="40.65" x2="38.77" y2="37.31" gradientTransform="translate(38.51 -17.21) rotate(44)" xlink:href="#b"/><linearGradient id="n" x1="39.56" y1="43.59" x2="33.9" y2="38.23" gradientTransform="translate(42.41 -13.7) rotate(48)" xlink:href="#b"/><linearGradient id="o" x1="37.05" y1="46.2" x2="33.49" y2="43.57" gradientTransform="translate(48.86 -10.52) rotate(51.99)" xlink:href="#b"/><linearGradient id="p" x1="34.91" y1="49.4" x2="28.39" y2="44.98" gradientTransform="translate(52.96 -5.38) rotate(55.99)" xlink:href="#b"/><linearGradient id="q" x1="33.03" y1="52.49" x2="21.71" y2="46.29" gradientTransform="translate(56.38 1.04) rotate(60)" xlink:href="#b"/><linearGradient id="r" x1="31" y1="55.83" x2="22.78" y2="51.87" gradientTransform="translate(63.47 6.1) rotate(64)" xlink:href="#b"/><linearGradient id="s" x1="29.76" y1="59.38" x2="23.94" y2="57.14" gradientTransform="translate(70.77 11.56) rotate(67.99)" xlink:href="#b"/><linearGradient id="t" x1="28.66" y1="62.97" x2="19.97" y2="60.26" gradientTransform="translate(75.24 19.59) rotate(72.01)" xlink:href="#b"/><linearGradient id="u" x1="27.46" y1="66.72" x2="19.7" y2="64.54" gradientTransform="translate(81.35 27.01) rotate(75.99)" xlink:href="#b"/><linearGradient id="v" x1="27.01" y1="70.34" x2="6.93" y2="66.77" gradientTransform="translate(81.2 40.23) rotate(80)" xlink:href="#b"/><linearGradient id="w" x1="26.65" y1="74.3" x2="9.74" y2="72.05" gradientTransform="translate(88.58 47.84) rotate(84)" xlink:href="#b"/><linearGradient id="x" x1="27.58" y1="77.9" x2="5.94" y2="76.97" gradientTransform="translate(92.5 58.99) rotate(88)" xlink:href="#b"/><linearGradient id="y" x1="26.04" y1="81.36" x2=".61" y2="82.52" gradientTransform="translate(2.89 -.4) rotate(2.01)" xlink:href="#b"/><linearGradient id="z" x1="26.24" y1="85.2" x2="16.78" y2="86.28" gradientTransform="translate(9.08 -1.74) rotate(6)" xlink:href="#b"/><linearGradient id="aa" x1="27.01" y1="88.84" x2="15.15" y2="91.09" gradientTransform="translate(15.95 -2.26) rotate(10)" xlink:href="#b"/><linearGradient id="ab" x1="27.47" y1="92.57" x2="11.03" y2="96.84" gradientTransform="translate(23.53 -1.79) rotate(14.02)" xlink:href="#b"/><linearGradient id="ac" x1="28.44" y1="96.44" x2="3.93" y2="104.11" gradientTransform="translate(31.73 -.06) rotate(17.97)" xlink:href="#b"/><linearGradient id="ad" x1="29.73" y1="99.97" x2="12.9" y2="106.48" gradientTransform="translate(40.25 -.41) rotate(22.01)" xlink:href="#b"/><linearGradient id="ae" x1="31.73" y1="103.08" x2="25.53" y2="106.02" gradientTransform="translate(48.8 -1.82) rotate(26.02)" xlink:href="#b"/><linearGradient id="af" x1="33.15" y1="106.62" x2="25.17" y2="111.04" gradientTransform="translate(58.33 .12) rotate(29.99)" xlink:href="#b"/><linearGradient id="ag" x1="35.1" y1="109.84" x2="28.58" y2="114.03" gradientTransform="translate(68.13 1.54) rotate(34.02)" xlink:href="#b"/><linearGradient id="ah" x1="37.11" y1="112.95" x2="33.77" y2="115.51" gradientTransform="translate(77.81 2.37) rotate(37.99)" xlink:href="#b"/><linearGradient id="ai" x1="39.79" y1="115.66" x2="34.91" y2="119.92" gradientTransform="translate(88.42 5.4) rotate(41.97)" xlink:href="#b"/><linearGradient id="aj" x1="42.18" y1="118.66" x2="31.33" y2="129.6" gradientTransform="translate(100.62 11.65) rotate(46.02)" xlink:href="#b"/><linearGradient id="ak" x1="45.2" y1="120.98" x2="37.14" y2="130.21" gradientTransform="translate(110.97 13.52) rotate(49.98)" xlink:href="#b"/><linearGradient id="al" x1="48.03" y1="123.29" x2="36.94" y2="138.49" gradientTransform="translate(123.36 19.55) rotate(53.98)" xlink:href="#b"/><linearGradient id="am" x1="51.06" y1="125.49" x2="43.77" y2="137.2" gradientTransform="translate(133.61 21.47) rotate(57.97)" xlink:href="#b"/><linearGradient id="an" x1="54.31" y1="127.34" x2="44.38" y2="146.19" gradientTransform="translate(147 29.09) rotate(61.99)" xlink:href="#b"/><linearGradient id="ao" x1="57.56" y1="129.31" x2="51.66" y2="142.8" gradientTransform="translate(156.65 30.75) rotate(66.02)" xlink:href="#b"/><linearGradient id="ap" x1="61.36" y1="130.43" x2="57.17" y2="141.29" gradientTransform="translate(166.73 33.79) rotate(70.02)" xlink:href="#b"/><linearGradient id="aq" x1="64.8" y1="131.71" x2="63.25" y2="137.06" gradientTransform="translate(175.61 35.86) rotate(74)" xlink:href="#b"/><linearGradient id="ar" x1="68.48" y1="132.48" x2="64.76" y2="150.16" gradientTransform="translate(190.95 46.72) rotate(77.98)" xlink:href="#b"/><linearGradient id="as" x1="72.17" y1="133.28" x2="70.69" y2="144.14" gradientTransform="translate(198.72 48.52) rotate(81.98)" xlink:href="#b"/><linearGradient id="at" x1="75.98" y1="133.68" x2="75.05" y2="151.51" gradientTransform="translate(214.42 60.38) rotate(87.2)" xlink:href="#b"/><linearGradient id="au" x1="79.25" y1="133.51" x2="79.09" y2="156.16" xlink:href="#b"/><linearGradient id="av" x1="83.4" y1="133.82" x2="84.8" y2="150.49" gradientTransform="translate(10.14 -5.52) rotate(4)" xlink:href="#b"/><linearGradient id="aw" x1="87.1" y1="133.05" x2="89.27" y2="146.54" gradientTransform="translate(20.34 -10.92) rotate(8)" xlink:href="#b"/><linearGradient id="ax" x1="90.96" y1="132.12" x2="92.59" y2="140.42" gradientTransform="translate(30.45 -16.12) rotate(12.01)" xlink:href="#b"/><linearGradient id="ay" x1="94.37" y1="131.38" x2="97.86" y2="142.23" gradientTransform="translate(41.52 -21.21) rotate(16)" xlink:href="#b"/><linearGradient id="az" x1="98.24" y1="130.52" x2="103.21" y2="144.09" gradientTransform="translate(53.02 -26.17) rotate(20.01)" xlink:href="#b"/><linearGradient id="ba" x1="101.76" y1="128.86" x2="108.35" y2="144.14" gradientTransform="translate(64.61 -30.93) rotate(24)" xlink:href="#b"/><linearGradient id="bb" x1="105.05" y1="127.37" x2="114.51" y2="144.9" gradientTransform="translate(76.83 -35.62) rotate(28)" xlink:href="#b"/><linearGradient id="bc" x1="108.12" y1="125.14" x2="121.69" y2="146.7" gradientTransform="translate(89.78 -40.32) rotate(32)" xlink:href="#b"/><linearGradient id="bd" x1="111.42" y1="123.14" x2="123.67" y2="140.2" gradientTransform="translate(100.13 -44.04) rotate(36)" xlink:href="#b"/><linearGradient id="be" x1="114.16" y1="120.62" x2="123" y2="130.7" gradientTransform="translate(113.32 -47.08) rotate(41.55)" xlink:href="#b"/><linearGradient id="bf" x1="117.36" y1="118.71" x2="129.06" y2="130.57" gradientTransform="translate(120.83 -50.47) rotate(44)" xlink:href="#b"/><linearGradient id="bg" x1="119.73" y1="115.86" x2="129.19" y2="123.93" gradientTransform="translate(130.25 -52.81) rotate(48)" xlink:href="#b"/><linearGradient id="bh" x1="122.57" y1="112.94" x2="128.23" y2="117.67" gradientTransform="translate(139.05 -54.5) rotate(52)" xlink:href="#b"/><linearGradient id="bi" x1="124.44" y1="109.99" x2="134.36" y2="116.27" gradientTransform="translate(150.87 -57.43) rotate(56)" xlink:href="#b"/><linearGradient id="bj" x1="126.91" y1="106.82" x2="139.93" y2="114.42" gradientTransform="translate(162.36 -60.15) rotate(60)" xlink:href="#b"/><linearGradient id="bk" x1="128.45" y1="103.26" x2="139.07" y2="108.69" gradientTransform="translate(170.3 -60.66) rotate(64)" xlink:href="#b"/><linearGradient id="bl" x1="129.5" y1="101.66" x2="139.04" y2="101.66" gradientTransform="translate(178.23 -60.92) rotate(68)" xlink:href="#b"/><linearGradient id="bm" x1="130.87" y1="97.24" x2="137.04" y2="97.24" gradientTransform="translate(185.04 -60.21) rotate(72)" xlink:href="#b"/><linearGradient id="bn" x1="131.99" y1="93.96" x2="142.43" y2="93.96" gradientTransform="translate(195.19 -61.9) rotate(76)" xlink:href="#b"/><linearGradient id="bo" x1="132.85" y1="90.31" x2="147.78" y2="90.31" gradientTransform="translate(204.89 -63.56) rotate(80)" xlink:href="#b"/><linearGradient id="bp" x1="133.46" y1="86.25" x2="152.03" y2="86.25" gradientTransform="translate(213.61 -64.72) rotate(84)" xlink:href="#b"/><linearGradient id="bq" x1="133.8" y1="82.02" x2="162.77" y2="82.02" gradientTransform="translate(225.08 -69.04) rotate(88)" xlink:href="#b"/><linearGradient id="br" x1="133.17" y1="77.37" x2="143.17" y2="77.37" xlink:href="#b"/><linearGradient id="bs" x1="133.46" y1="73.05" x2="151.09" y2="73.05" gradientTransform="translate(8.41 -14.46) rotate(6)" xlink:href="#b"/><linearGradient id="bt" x1="132.85" y1="68.24" x2="155.78" y2="68.24" gradientTransform="translate(14.1 -24.11) rotate(10.04)" xlink:href="#b"/><linearGradient id="bu" x1="131.99" y1="64.62" x2="147.86" y2="64.62" gradientTransform="translate(19.78 -31.92) rotate(14)" xlink:href="#b"/><linearGradient id="bv" x1="130.87" y1="61.12" x2="142.5" y2="61.12" gradientTransform="translate(25.58 -39.25) rotate(18)" xlink:href="#b"/><linearGradient id="bw" x1="129.5" y1="56.31" x2="145.39" y2="56.31" gradientTransform="translate(31.19 -47.48) rotate(22.05)" xlink:href="#b"/><linearGradient id="bx" x1="127.89" y1="53.46" x2="138.85" y2="53.46" gradientTransform="translate(36.97 -53.09) rotate(26.02)" xlink:href="#b"/><linearGradient id="by" x1="126.05" y1="51.23" x2="131.79" y2="51.23" gradientTransform="translate(42.87 -57.58) rotate(29.99)" xlink:href="#b"/><linearGradient id="bz" x1="123.98" y1="46.87" x2="132.6" y2="46.87" gradientTransform="translate(48.12 -63.71) rotate(33.99)" xlink:href="#b"/><linearGradient id="ca" x1="122.37" y1="46.49" x2="142.42" y2="30.47" gradientTransform="translate(51.71 -73.4) rotate(37.99)" xlink:href="#b"/><linearGradient id="cb" x1="119.26" y1="43.58" x2="130.74" y2="34.12" gradientTransform="translate(58.06 -73.82) rotate(42)" xlink:href="#b"/><linearGradient id="cc" x1="117.83" y1="40" x2="130.09" y2="27.67" gradientTransform="translate(62.3 -78.67) rotate(46.02)" xlink:href="#b"/><linearGradient id="cd" x1="114.27" y1="38.26" x2="122.49" y2="28.87" gradientTransform="translate(67.97 -78.8) rotate(50.01)" xlink:href="#b"/><linearGradient id="ce" x1="111.58" y1="35.75" x2="114.45" y2="31.87" gradientTransform="translate(73.98 -77.29) rotate(53.97)" xlink:href="#b"/><linearGradient id="cf" x1="107.98" y1="34.41" x2="112.78" y2="26.74" gradientTransform="translate(77.55 -79.61) rotate(57.97)" xlink:href="#b"/><linearGradient id="cg" x1="104.87" y1="32.1" x2="111.23" y2="20.62" gradientTransform="translate(80.47 -81.61) rotate(61.99)" xlink:href="#b"/><linearGradient id="ch" x1="101.78" y1="30.15" x2="112.09" y2="6.89" gradientTransform="translate(80.31 -86.75) rotate(65.99)" xlink:href="#b"/><linearGradient id="ci" x1="98.1" y1="28.76" x2="104.77" y2="11.24" gradientTransform="translate(85.57 -82.13) rotate(70.01)" xlink:href="#b"/><linearGradient id="cj" x1="94.51" y1="27.74" x2="97.77" y2="17.04" gradientTransform="translate(91.1 -76.29) rotate(74)" xlink:href="#b"/><linearGradient id="ck" x1="91.05" y1="26.86" x2="93.61" y2="13.84" gradientTransform="translate(92.87 -74.41) rotate(78.01)" xlink:href="#b"/><linearGradient id="cl" x1="87.21" y1="26.27" x2="88.6" y2="16.65" gradientTransform="translate(96.67 -68.84) rotate(81.98)" xlink:href="#b"/><linearGradient id="cm" x1="83.52" y1="25.96" x2="83.83" y2="20.38" gradientTransform="translate(100.86 -61.99) rotate(85.97)" xlink:href="#b"/></defs><rect x="78.17" y="17.37" width="2" height="8" style="fill:url(#b); stroke-width:0px;"/><rect x="73.92" y=".05" width="2.28" height="25.6" transform="translate(-.71 5.27) rotate(-4)" style="fill:url(#c); stroke-width:0px;"/><rect x="69.98" y="10.6" width="2.28" height="15.48" transform="translate(-1.86 10.07) rotate(-8)" style="fill:url(#d); stroke-width:0px;"/><rect x="66.64" y="20.06" width="2.28" height="6.68" transform="translate(-3.38 14.6) rotate(-11.99)" style="fill:url(#e); stroke-width:0px;"/><rect x="62.16" y="16.8" width="2.28" height="10.99" transform="translate(-3.69 18.31) rotate(-16)" style="fill:url(#f); stroke-width:0px;"/><rect x="59.19" y="23.7" width="2.28" height="5.2" transform="translate(-5.36 22.21) rotate(-20)" style="fill:url(#g); stroke-width:0px;"/><rect x="54.28" y="19.36" width="2.28" height="11.3" transform="translate(-5.38 24.7) rotate(-24)" style="fill:url(#h); stroke-width:0px;"/><rect x="51.49" y="25.05" width="2.28" height="7.2" transform="translate(-7.29 28.05) rotate(-27.99)" style="fill:url(#i); stroke-width:0px;"/><rect x="46.72" y="22.61" width="2.28" height="12.01" transform="translate(-7.89 29.71) rotate(-32)" style="fill:url(#j); stroke-width:0px;"/><rect x="39.25" y="12.67" width="2.28" height="25.6" transform="translate(-7.26 28.6) rotate(-36)" style="fill:url(#k); stroke-width:0px;"/><rect x="38.01" y="22.26" width="2.28" height="18" transform="translate(-10.93 32.48) rotate(-40)" style="fill:url(#l); stroke-width:0px;"/><rect x="39.42" y="36.81" width="2.28" height="4.5" transform="translate(-15.75 39.13) rotate(-44)" style="fill:url(#m); stroke-width:0px;"/><rect x="35.45" y="36.85" width="2.28" height="7.84" transform="translate(-18.2 40.68) rotate(-48)" style="fill:url(#n); stroke-width:0px;"/><rect x="34.08" y="42.49" width="2.28" height="4.7" transform="translate(-21.8 44.97) rotate(-51.99)" style="fill:url(#o); stroke-width:0px;"/><rect x="30.41" y="43.14" width="2.28" height="7.97" transform="translate(-25.16 46.92) rotate(-55.99)" style="fill:url(#p); stroke-width:0px;"/><rect x="26.15" y="42.93" width="2.28" height="12.83" transform="translate(-29.09 48.31) rotate(-60)" style="fill:url(#q); stroke-width:0px;"/><rect x="25.72" y="49.15" width="2.28" height="9.37" transform="translate(-33.3 54.38) rotate(-64)" style="fill:url(#r); stroke-width:0px;"/><rect x="25.68" y="55.32" width="2.28" height="5.85" transform="translate(-37.23 61.29) rotate(-67.99)" style="fill:url(#s); stroke-width:0px;"/><rect x="23" y="57.25" width="2.28" height="8.62" transform="translate(-41.87 65.51) rotate(-72.01)" style="fill:url(#t); stroke-width:0px;"/><rect x="22.24" y="61.64" width="2.28" height="7.87" transform="translate(-45.9 72.39) rotate(-75.99)" style="fill:url(#u); stroke-width:0px;"/><rect x="15.49" y="58.56" width="2.28" height="19.87" transform="translate(-53.72 72.98) rotate(-80)" style="fill:url(#v); stroke-width:0px;"/><rect x="16.58" y="64.9" width="2.28" height="16.42" transform="translate(-56.84 83.09) rotate(-84)" style="fill:url(#w); stroke-width:0px;"/><rect x="14.57" y="67.47" width="2.28" height="19.84" transform="translate(-62.18 90.39) rotate(-88)" style="fill:url(#x); stroke-width:0px;"/><rect x=".03" y="80.82" width="25.6" height="2.28" transform="translate(-2.87 .5) rotate(-2.01)" style="fill:url(#y); stroke-width:0px;"/><rect x="16.44" y="84.64" width="9.47" height="2.28" transform="translate(-8.85 2.68) rotate(-6)" style="fill:url(#z); stroke-width:0px;"/><rect x="15.22" y="88.87" width="11.28" height="2.28" transform="translate(-15.31 4.99) rotate(-10)" style="fill:url(#aa); stroke-width:0px;"/><rect x="10.62" y="93.62" width="16.82" height="2.28" transform="translate(-22.39 7.44) rotate(-14.02)" style="fill:url(#ab); stroke-width:0px;"/><rect x="3.27" y="99.17" width="25.6" height="2.28" transform="translate(-30.16 9.85) rotate(-17.97)" style="fill:url(#ac); stroke-width:0px;"/><rect x="12.18" y="102.14" width="18.01" height="2.28" transform="translate(-37.17 15.47) rotate(-22.01)" style="fill:url(#ad); stroke-width:0px;"/><rect x="25.28" y="103.56" width="6.1" height="2.28" transform="translate(-43.05 23.04) rotate(-26.02)" style="fill:url(#ae); stroke-width:0px;"/><rect x="24.44" y="107.81" width="9.01" height="2.28" transform="translate(-50.58 29.06) rotate(-29.99)" style="fill:url(#af); stroke-width:0px;"/><rect x="27.56" y="110.99" width="7.97" height="2.28" transform="translate(-57.33 36.83) rotate(-34.02)" style="fill:url(#ag); stroke-width:0px;"/><rect x="33.42" y="113.07" width="4.08" height="2.28" transform="translate(-62.79 46.03) rotate(-37.99)" style="fill:url(#ah); stroke-width:0px;"/><rect x="34.04" y="116.81" width="6.26" height="2.28" transform="translate(-69.34 55.12) rotate(-41.97)" style="fill:url(#ai); stroke-width:0px;"/><rect x="28.64" y="123.15" width="15.91" height="2.28" transform="translate(-78.25 64.31) rotate(-46.02)" style="fill:url(#aj); stroke-width:0px;"/><rect x="34.85" y="124.66" width="12.27" height="2.28" transform="translate(-81.71 76.29) rotate(-49.98)" style="fill:url(#ak); stroke-width:0px;"/><rect x="33.27" y="129.75" width="18.44" height="2.28" transform="translate(-88.36 88.28) rotate(-53.98)" style="fill:url(#al); stroke-width:0px;"/><rect x="40.62" y="130.18" width="13.63" height="2.28" transform="translate(-89.05 101.89) rotate(-57.97)" style="fill:url(#am); stroke-width:0px;"/><rect x="38.58" y="135.75" width="21.42" height="2.28" transform="translate(-94.71 116.12) rotate(-61.99)" style="fill:url(#an); stroke-width:0px;"/><rect x="47.16" y="134.8" width="14.99" height="2.28" transform="translate(-91.75 130.64) rotate(-66.02)" style="fill:url(#ao); stroke-width:0px;"/><rect x="53.5" y="134.77" width="11.5" height="2.28" transform="translate(-88.72 145.15) rotate(-70.02)" style="fill:url(#ap); stroke-width:0px;"/><rect x="61.11" y="133.31" width="5.79" height="2.28" transform="translate(-82.88 158.92) rotate(-74)" style="fill:url(#aq); stroke-width:0px;"/><rect x="57.7" y="140.17" width="17.84" height="2.28" transform="translate(-85.46 177.04) rotate(-77.98)" style="fill:url(#ar); stroke-width:0px;"/><rect x="66.02" y="137.47" width="10.84" height="2.28" transform="translate(-75.77 190.01) rotate(-81.98)" style="fill:url(#as); stroke-width:0px;"/><rect x="66.35" y="141.64" width="18.32" height="2.28" transform="translate(-70.79 211.21) rotate(-87.2)" style="fill:url(#at); stroke-width:0px;"/><rect x="78.17" y="133.37" width="2" height="23" style="fill:url(#au); stroke-width:0px;"/><rect x="82.97" y="133.61" width="2.28" height="17.32" transform="translate(-9.72 6.22) rotate(-4)" style="fill:url(#av); stroke-width:0px;"/><rect x="87.07" y="133.17" width="2.28" height="13.5" transform="translate(-18.62 13.64) rotate(-8)" style="fill:url(#aw); stroke-width:0px;"/><rect x="90.72" y="132.49" width="2.28" height="8.38" transform="translate(-26.43 22.1) rotate(-12.01)" style="fill:url(#ax); stroke-width:0px;"/><rect x="95.07" y="131.45" width="2.28" height="11.3" transform="translate(-34.07 31.84) rotate(-16)" style="fill:url(#ay); stroke-width:0px;"/><rect x="99.56" y="130.07" width="2.28" height="14.34" transform="translate(-40.87 42.73) rotate(-20.01)" style="fill:url(#az); stroke-width:0px;"/><rect x="103.93" y="128.38" width="2.27" height="16.3" transform="translate(-46.45 54.54) rotate(-24)" style="fill:url(#ba); stroke-width:0px;"/><rect x="108.7" y="126.26" width="2.28" height="19.99" transform="translate(-51.11 67.52) rotate(-28)" style="fill:url(#bb); stroke-width:0px;"/><rect x="114.07" y="123.59" width="2.28" height="25.6" transform="translate(-54.77 81.77) rotate(-32)" style="fill:url(#bc); stroke-width:0px;"/><rect x="116.69" y="121.39" width="2.28" height="21.35" transform="translate(-55.12 94.48) rotate(-36)" style="fill:url(#bd); stroke-width:0px;"/><rect x="117.56" y="119.52" width="2.28" height="12.56" transform="translate(-53.57 110.39) rotate(-41.55)" style="fill:url(#be); stroke-width:0px;"/><rect x="121.73" y="116.34" width="2.28" height="15.91" transform="translate(-51.86 120.24) rotate(-44)" style="fill:url(#bf); stroke-width:0px;"/><rect x="123.29" y="113.86" width="2.28" height="12.01" transform="translate(-47.91 132.13) rotate(-48)" style="fill:url(#bg); stroke-width:0px;"/><rect x="124.26" y="111.49" width="2.28" height="7.61" transform="translate(-42.66 143.12) rotate(-52)" style="fill:url(#bh); stroke-width:0px;"/><rect x="128.31" y="107.33" width="2.28" height="11.65" transform="translate(-36.75 157.2) rotate(-56)" style="fill:url(#bi); stroke-width:0px;"/><rect x="132.13" y="102.86" width="2.28" height="15.36" transform="translate(-29.09 170.68) rotate(-60)" style="fill:url(#bj); stroke-width:0px;"/><rect x="132.55" y="100.05" width="2.28" height="11.79" transform="translate(-20.14 179.66) rotate(-64)" style="fill:url(#bk); stroke-width:0px;"/><rect x="133.13" y="96.98" width="2.28" height="9.37" transform="translate(-10.29 188.07) rotate(-68)" style="fill:url(#bl); stroke-width:0px;"/><rect x="132.82" y="94.37" width="2.28" height="5.75" transform="translate(.07 194.59) rotate(-72)" style="fill:url(#bm); stroke-width:0px;"/><rect x="136.07" y="88.86" width="2.28" height="10.19" transform="translate(12.86 204.37) rotate(-76)" style="fill:url(#bn); stroke-width:0px;"/><rect x="139.18" y="82.93" width="2.28" height="14.76" transform="translate(27.02 212.82) rotate(-80)" style="fill:url(#bo); stroke-width:0px;"/><rect x="141.6" y="77.03" width="2.28" height="18.44" transform="translate(42.06 219.2) rotate(-84)" style="fill:url(#bp); stroke-width:0px;"/><rect x="147.15" y="67.56" width="2.28" height="28.91" transform="translate(61.15 227.35) rotate(-88)" style="fill:url(#bq); stroke-width:0px;"/><rect x="133.17" y="76.37" width="10" height="2" style="fill:url(#br); stroke-width:0px;"/><rect x="133.53" y="71.91" width="17.49" height="2.28" transform="translate(-6.85 15.26) rotate(-6)" style="fill:url(#bs); stroke-width:0px;"/><rect x="132.88" y="67.1" width="22.88" height="2.27" transform="translate(-9.68 26.19) rotate(-10.04)" style="fill:url(#bt); stroke-width:0px;"/><rect x="132.03" y="63.48" width="15.79" height="2.28" transform="translate(-11.47 35.76) rotate(-14)" style="fill:url(#bu); stroke-width:0px;"/><rect x="130.94" y="59.98" width="11.49" height="2.28" transform="translate(-12.2 45.23) rotate(-18)" style="fill:url(#bv); stroke-width:0px;"/><rect x="129.34" y="55.17" width="16.21" height="2.28" transform="translate(-11.09 55.71) rotate(-22.05)" style="fill:url(#bw); stroke-width:0px;"/><rect x="127.83" y="52.32" width="11.08" height="2.27" transform="translate(-9.93 63.92) rotate(-26.02)" style="fill:url(#bx); stroke-width:0px;"/><rect x="126.26" y="50.09" width="5.31" height="2.28" transform="translate(-8.34 71.3) rotate(-29.99)" style="fill:url(#by); stroke-width:0px;"/><rect x="123.86" y="45.73" width="8.86" height="2.28" transform="translate(-4.28 79.72) rotate(-33.99)" style="fill:url(#bz); stroke-width:0px;"/><rect x="119.68" y="37.27" width="25.6" height="2.28" transform="translate(4.42 89.67) rotate(-37.99)" style="fill:url(#ca); stroke-width:0px;"/><rect x="118.16" y="37.57" width="14.02" height="2.28" transform="translate(6.26 93.71) rotate(-42)" style="fill:url(#cb); stroke-width:0px;"/><rect x="114.51" y="32.88" width="18.52" height="2.28" transform="translate(13.34 99.46) rotate(-46.02)" style="fill:url(#cc); stroke-width:0px;"/><rect x="112.35" y="32.33" width="12.23" height="2.28" transform="translate(16.69 102.72) rotate(-50.01)" style="fill:url(#cd); stroke-width:0px;"/><rect x="110.62" y="32.86" width="4.52" height="2.28" transform="translate(19 105.3) rotate(-53.97)" style="fill:url(#ce); stroke-width:0px;"/><rect x="106.47" y="29.05" width="8.31" height="2.28" transform="translate(26.36 107.97) rotate(-57.97)" style="fill:url(#cf); stroke-width:0px;"/><rect x="101.75" y="25.03" width="12.8" height="2.28" transform="translate(34.26 109.37) rotate(-61.99)" style="fill:url(#cg); stroke-width:0px;"/><rect x="94.16" y="17.33" width="25.6" height="2.28" transform="translate(46.56 108.66) rotate(-65.99)" style="fill:url(#ch); stroke-width:0px;"/><rect x="92.14" y="18.89" width="18.56" height="2.28" transform="translate(47.92 108.49) rotate(-70.01)" style="fill:url(#ci); stroke-width:0px;"/><rect x="90.67" y="21.16" width="10.99" height="2.28" transform="translate(48.23 108.6) rotate(-74)" style="fill:url(#cj); stroke-width:0px;"/><rect x="85.69" y="18.99" width="13.37" height="2.28" transform="translate(53.49 106.31) rotate(-78.01)" style="fill:url(#ck); stroke-width:0px;"/><rect x="83.09" y="20.06" width="9.71" height="2.28" transform="translate(54.68 105.33) rotate(-81.98)" style="fill:url(#cl); stroke-width:0px;"/><rect x="81.17" y="21.97" width="5.03" height="2.28" transform="translate(54.76 104.96) rotate(-85.97)" style="fill:url(#cm); stroke-width:0px;"/></svg>