<svg xmlns="http://www.w3.org/2000/svg" xmlns:xlink="http://www.w3.org/1999/xlink" width="500" zoomAndPan="magnify" viewBox="0 0 375 374.999991" height="500" preserveAspectRatio="xMidYMid meet" version="1.0"><path fill="#ff6c26" d="M 266.082031 108.71875 L 200.925781 43.566406 C 194.859375 37.5 184.882812 37.5 178.621094 43.566406 C 172.554688 49.632812 172.554688 59.804688 178.621094 65.871094 L 243.777344 131.027344 C 248.277344 135.527344 250.429688 141.394531 250.429688 147.265625 C 250.429688 153.136719 248.277344 159.003906 243.777344 163.503906 L 216.382812 190.898438 C 210.316406 196.964844 210.316406 207.136719 216.382812 213.203125 C 219.515625 216.332031 223.425781 217.898438 227.535156 217.898438 C 231.644531 217.898438 235.558594 216.332031 238.6875 213.203125 L 266.082031 185.8125 C 287.40625 164.289062 287.40625 129.851562 266.082031 108.71875 Z M 266.082031 108.71875 " fill-opacity="1" fill-rule="nonzero"/><path fill="#ff6c26" d="M 272.34375 102.460938 C 284.863281 114.980469 305.410156 114.980469 317.929688 102.460938 C 330.453125 89.9375 330.453125 69.394531 317.929688 56.871094 C 305.410156 44.347656 284.863281 44.347656 272.34375 56.871094 C 259.625 69.589844 259.625 89.9375 272.34375 102.460938 Z M 272.34375 102.460938 " fill-opacity="1" fill-rule="nonzero"/><path fill="#0f978e" d="M 112.292969 108.71875 L 47.136719 173.875 C 41.070312 179.941406 41.070312 189.917969 47.136719 196.179688 C 53.203125 202.246094 63.375 202.246094 69.441406 196.179688 L 99.769531 165.851562 L 134.597656 131.027344 C 139.097656 126.527344 144.96875 124.375 150.835938 124.375 C 156.707031 124.375 162.578125 126.527344 167.078125 131.027344 L 194.46875 158.417969 C 200.730469 164.484375 210.710938 164.484375 216.773438 158.417969 C 219.90625 155.289062 221.46875 151.375 221.46875 147.265625 C 221.46875 143.15625 219.90625 139.242188 216.773438 136.113281 L 189.382812 108.71875 C 167.859375 87.394531 133.421875 87.394531 112.292969 108.71875 Z M 112.292969 108.71875 " fill-opacity="1" fill-rule="nonzero"/><path fill="#0f978e" d="M 106.03125 102.460938 C 118.554688 89.9375 118.554688 69.394531 106.03125 56.871094 C 93.507812 44.347656 72.964844 44.347656 60.441406 56.871094 C 47.917969 69.394531 47.917969 89.9375 60.441406 102.460938 C 73.160156 115.175781 93.507812 115.175781 106.03125 102.460938 Z M 106.03125 102.460938 " fill-opacity="1" fill-rule="nonzero"/><path fill="#ff6c26" d="M 112.292969 262.507812 L 177.445312 327.664062 C 183.511719 333.730469 193.492188 333.925781 199.753906 327.664062 C 205.816406 321.402344 205.816406 311.425781 199.753906 305.359375 L 134.597656 240.203125 C 130.097656 235.703125 127.945312 229.835938 127.945312 223.964844 C 127.945312 218.09375 130.097656 212.226562 134.597656 207.726562 L 161.988281 180.332031 C 168.054688 174.265625 168.054688 164.09375 161.988281 158.027344 C 158.859375 154.894531 154.945312 153.332031 150.835938 153.332031 C 146.726562 153.332031 142.816406 154.894531 139.683594 158.027344 L 112.292969 185.417969 C 90.964844 206.941406 90.964844 241.378906 112.292969 262.507812 Z M 112.292969 262.507812 " fill-opacity="1" fill-rule="nonzero"/><path fill="#ff6c26" d="M 106.03125 268.769531 C 93.507812 256.25 72.964844 256.25 60.441406 268.769531 C 47.917969 281.292969 47.917969 301.835938 60.441406 314.359375 C 72.964844 326.882812 93.507812 326.882812 106.03125 314.359375 C 118.75 301.640625 118.75 281.292969 106.03125 268.769531 Z M 106.03125 268.769531 " fill-opacity="1" fill-rule="nonzero"/><path fill="#0f978e" d="M 266.082031 262.507812 L 331.234375 197.355469 C 337.300781 191.289062 337.496094 181.308594 331.234375 175.050781 C 325.171875 168.984375 314.996094 168.984375 308.929688 175.050781 L 278.601562 205.375 L 243.777344 240.203125 C 239.277344 244.703125 233.40625 246.855469 227.535156 246.855469 C 221.667969 246.855469 215.796875 244.703125 211.296875 240.203125 L 183.902344 212.8125 C 177.839844 206.746094 167.664062 206.746094 161.597656 212.8125 C 158.46875 215.941406 156.902344 219.855469 156.902344 223.964844 C 156.902344 228.074219 158.46875 231.988281 161.597656 235.117188 L 188.992188 262.507812 C 210.511719 283.835938 244.949219 283.835938 266.082031 262.507812 Z M 266.082031 262.507812 " fill-opacity="1" fill-rule="nonzero"/><path fill="#0f978e" d="M 272.34375 268.769531 C 259.820312 281.292969 259.820312 301.835938 272.34375 314.359375 C 284.863281 326.882812 305.410156 326.882812 317.929688 314.359375 C 330.453125 301.835938 330.453125 281.292969 317.929688 268.769531 C 305.214844 256.054688 284.863281 256.054688 272.34375 268.769531 Z M 272.34375 268.769531 " fill-opacity="1" fill-rule="nonzero"/></svg>