<svg xmlns="http://www.w3.org/2000/svg" xmlns:xlink="http://www.w3.org/1999/xlink" width="500" zoomAndPan="magnify" viewBox="0 0 375 374.999991" height="500" preserveAspectRatio="xMidYMid meet" version="1.0"><defs><clipPath id="89d72353e8"><path d="M 100.046875 73.582031 L 269.933594 73.582031 L 269.933594 153.527344 L 100.046875 153.527344 Z M 100.046875 73.582031 " clip-rule="nonzero"/></clipPath><clipPath id="73ec553623"><path d="M 100.050781 119.324219 C 101.175781 111.074219 101.851562 109.050781 102.824219 107.175781 C 103.726562 105.300781 104.925781 103.5 106.273438 101.925781 C 107.625 100.351562 109.199219 98.925781 110.925781 97.726562 C 112.574219 96.523438 116.398438 94.726562 116.398438 94.648438 C 116.398438 94.648438 126 90.601562 132 88.273438 C 139.875 85.273438 150.75 80.699219 159.976562 78.449219 C 168.523438 76.351562 176.851562 75.523438 185.398438 74.851562 C 194.023438 74.175781 203.324219 73.125 211.425781 74.25 C 218.851562 75.300781 226.574219 80.699219 232.199219 80.773438 C 235.949219 80.851562 241.648438 78.226562 241.726562 78.226562 C 241.726562 78.226562 243.976562 78.523438 245.101562 78.601562 C 246.226562 78.75 248.476562 79.050781 248.476562 79.050781 C 248.476562 79.050781 248.476562 79.050781 248.550781 79.050781 C 248.550781 79.050781 250.648438 79.875 251.699219 80.25 C 252.75 80.625 254.851562 81.449219 254.925781 81.449219 C 254.925781 81.523438 256.800781 82.800781 257.699219 83.398438 C 258.675781 84.074219 260.476562 85.351562 260.550781 85.351562 C 260.550781 85.351562 262.050781 87.074219 262.800781 87.898438 C 263.550781 88.726562 265.050781 90.449219 265.050781 90.449219 C 265.050781 90.523438 266.101562 92.476562 266.625 93.523438 C 267.148438 94.5 268.199219 96.449219 268.199219 96.523438 C 268.273438 96.523438 268.800781 98.699219 269.023438 99.824219 C 269.324219 100.949219 269.851562 103.125 269.851562 103.125 C 269.851562 103.199219 269.851562 105.449219 269.851562 106.574219 C 269.851562 107.699219 269.851562 109.949219 269.851562 109.949219 C 269.851562 110.023438 269.324219 112.199219 269.023438 113.324219 C 268.800781 114.375 268.199219 116.550781 268.199219 116.625 C 268.199219 116.625 267.148438 118.648438 266.625 119.625 C 266.101562 120.675781 265.050781 122.625 265.050781 122.625 C 265.050781 122.699219 263.550781 124.351562 262.800781 125.25 C 262.050781 126.074219 260.550781 127.726562 260.476562 127.800781 C 260.476562 127.800781 258.601562 129.074219 257.699219 129.675781 C 256.726562 130.351562 254.925781 131.625 254.925781 131.625 C 254.851562 131.625 254.851562 131.625 254.851562 131.625 C 254.851562 131.699219 252.75 132.449219 251.699219 132.824219 C 250.648438 133.273438 248.550781 134.023438 248.476562 134.101562 C 248.476562 134.101562 246.226562 134.324219 245.101562 134.476562 C 243.976562 134.625 241.800781 134.925781 241.726562 134.925781 C 241.574219 134.925781 216.523438 143.476562 210.898438 144.75 C 208.875 145.273438 207.226562 145.125 206.699219 145.425781 C 206.550781 145.5 206.550781 145.574219 206.476562 145.726562 C 206.023438 146.101562 204.675781 146.851562 203.773438 147.449219 C 202.949219 148.125 202.125 149.101562 201.375 149.550781 C 200.851562 149.851562 200.324219 149.851562 199.875 150.074219 C 199.425781 150.375 199.125 150.75 198.523438 150.976562 C 197.773438 151.351562 196.5 151.5 195.523438 151.800781 C 194.476562 152.175781 193.351562 152.773438 192.523438 153 C 191.925781 153.074219 191.476562 153 190.949219 153.074219 C 190.425781 153.148438 190.050781 153.375 189.375 153.449219 C 188.550781 153.523438 187.273438 153.300781 186.226562 153.300781 C 185.175781 153.300781 183.898438 153.523438 183.074219 153.449219 C 182.476562 153.375 182.023438 153.074219 181.5 153 C 180.976562 152.925781 180.523438 153 179.925781 152.925781 C 179.101562 152.699219 177.976562 152.023438 177 151.726562 C 176.023438 151.351562 174 151.050781 173.925781 150.824219 C 173.925781 150.75 174.375 150.75 174.375 150.675781 C 174.375 150.375 172.199219 150 171.148438 149.324219 C 169.949219 148.574219 168.898438 147.074219 167.773438 146.398438 C 166.800781 145.875 165.074219 145.351562 165 145.351562 C 165 145.351562 163.050781 144 162.074219 143.324219 C 161.175781 142.726562 159.226562 141.375 159.226562 141.375 C 159.148438 141.300781 157.648438 139.574219 156.898438 138.75 C 156.074219 137.851562 155.476562 136.425781 154.574219 136.125 C 153.675781 135.824219 152.851562 136.5 151.425781 136.949219 C 148.199219 138 139.800781 141.75 135.75 143.101562 C 133.273438 143.851562 131.773438 144.375 129.675781 144.675781 C 127.648438 144.976562 125.476562 144.976562 123.449219 144.824219 C 121.351562 144.601562 119.25 144.074219 117.300781 143.398438 C 115.351562 142.726562 113.398438 141.75 111.675781 140.550781 C 109.949219 139.425781 108.300781 138 106.875 136.5 C 105.523438 135 104.25 133.199219 103.273438 131.398438 C 102.226562 129.601562 101.476562 127.574219 100.875 125.550781 C 100.351562 123.523438 100.050781 119.324219 100.050781 119.324219 " clip-rule="nonzero"/></clipPath></defs><g clip-path="url(#89d72353e8)"><g clip-path="url(#73ec553623)"><path fill="#ff6c26" d="M 97.050781 71.25 L 272.929688 71.25 L 272.929688 156.523438 L 97.050781 156.523438 Z M 97.050781 71.25 " fill-opacity="1" fill-rule="nonzero"/></g></g><path fill="#0f978e" d="M 298.695312 100.816406 L 192.71875 51.078125 C 189.125 49.394531 184.980469 49.394531 181.390625 51.078125 L 75.414062 100.816406 C 70.738281 103.011719 67.753906 107.707031 67.753906 112.875 C 67.753906 118.035156 70.738281 122.738281 75.414062 124.933594 L 181.390625 174.679688 C 183.183594 175.523438 185.117188 175.949219 187.054688 175.949219 C 188.988281 175.949219 190.921875 175.523438 192.71875 174.679688 L 298.695312 124.933594 C 303.367188 122.738281 306.351562 118.035156 306.351562 112.875 C 306.351562 107.707031 303.367188 103.011719 298.695312 100.816406 Z M 187.054688 147.902344 L 112.4375 112.875 L 187.054688 77.855469 L 261.671875 112.875 Z M 187.054688 147.902344 " fill-opacity="1" fill-rule="nonzero"/><path fill="#0f978e" d="M 305.085938 156.960938 C 301.964844 150.296875 294.019531 147.453125 287.363281 150.566406 L 187.054688 197.640625 L 86.742188 150.566406 C 80.078125 147.445312 72.132812 150.289062 69.019531 156.960938 C 65.886719 163.621094 68.75 171.558594 75.414062 174.679688 L 181.390625 224.421875 C 183.183594 225.261719 185.117188 225.6875 187.054688 225.6875 C 188.988281 225.6875 190.921875 225.261719 192.71875 224.421875 L 298.695312 174.679688 C 305.355469 171.558594 308.21875 163.621094 305.085938 156.960938 Z M 305.085938 156.960938 " fill-opacity="1" fill-rule="nonzero"/><path fill="#0f978e" d="M 305.085938 206.699219 C 301.964844 200.035156 294.019531 197.191406 287.363281 200.304688 L 187.054688 247.390625 L 86.742188 200.304688 C 80.078125 197.183594 72.132812 200.027344 69.019531 206.699219 C 65.886719 213.359375 68.75 221.296875 75.414062 224.421875 L 181.390625 274.167969 C 183.183594 275.011719 185.117188 275.433594 187.054688 275.433594 C 188.988281 275.433594 190.921875 275.011719 192.71875 274.167969 L 298.695312 224.421875 C 305.355469 221.296875 308.21875 213.359375 305.085938 206.699219 Z M 305.085938 206.699219 " fill-opacity="1" fill-rule="nonzero"/><path fill="#0f978e" d="M 305.085938 256.445312 C 301.964844 249.785156 294.019531 246.921875 287.363281 250.054688 L 187.054688 297.128906 L 86.742188 250.054688 C 80.078125 246.921875 72.132812 249.785156 69.019531 256.445312 C 65.886719 263.109375 68.75 271.046875 75.414062 274.167969 L 181.390625 323.90625 C 183.183594 324.75 185.117188 325.175781 187.054688 325.175781 C 188.988281 325.175781 190.921875 324.75 192.71875 323.90625 L 298.695312 274.167969 C 305.355469 271.046875 308.21875 263.109375 305.085938 256.445312 Z M 305.085938 256.445312 " fill-opacity="1" fill-rule="nonzero"/></svg>