<?xml version="1.0" encoding="utf-8"?>
<!-- Generator: Adobe Illustrator 27.8.1, SVG Export Plug-In . SVG Version: 6.00 Build 0)  -->
<svg version="1.1" id="a" xmlns="http://www.w3.org/2000/svg" xmlns:xlink="http://www.w3.org/1999/xlink" x="0px" y="0px"
	 viewBox="0 0 1500 250" style="enable-background:new 0 0 1500 250;" xml:space="preserve">
<style type="text/css">
	.st0{clip-path:url(#SVGID_00000111869591657453326430000015777608042802658226_);fill:#0F978E;}
	.st1{fill:#0F978E;}
	.st2{fill:#0F978E;stroke:#0F978E;stroke-width:0.9127;stroke-miterlimit:10;}
	.st3{fill:#0F978E;stroke:#0F978E;stroke-width:2.7381;stroke-miterlimit:10;}
	.st4{clip-path:url(#SVGID_00000110472289802489528920000013585040311183813254_);fill:#FF6C26;}
	.st5{fill:#FF6C26;}
	.st6{clip-path:url(#SVGID_00000147898838602042088470000010835645392304272829_);}
	.st7{clip-path:url(#SVGID_00000010277163687373237230000017082773541735600523_);}
	.st8{fill:#0F978E;stroke:#0F978E;stroke-width:3;stroke-miterlimit:10;}
	.st9{clip-path:url(#SVGID_00000021805533398808205920000001821643295428864411_);}
	.st10{fill:#FF6C26;stroke:#FF6C26;stroke-width:3;stroke-miterlimit:10;}
</style>
<g>
	<g>
		<path class="st1" d="M361.3,156.5l-3.9,4.2c-13.1,14.1-37.5,40.4-50.6,45.8c-5.2,2.1-10.6,3.2-16,3.2c-10.8,0-21.4-4.2-29.4-12.2
			c-16.2-16.3-16.2-42.7,0-59l35.1-33.8c7.8-7.8,18.2-12.2,29.4-12.2c11.1,0,21.6,4.3,29.5,12.2c3.4,3.5,3.4,9.1,0,12.5
			c-1.7,1.7-3.9,2.6-6.2,2.6s-4.6-0.9-6.3-2.6c-4.5-4.5-10.5-7-16.9-7s-12.4,2.5-16.9,7L274,151.1c-9.3,9.3-9.3,24.6,0,33.9
			c6.9,6.9,17.1,8.9,26.1,5.2c7.5-3.1,22.5-19.1,31.4-28.7l2.7-2.8l0.8,0.1c7.1,1.4,13.7,2.3,20.9-0.3L361.3,156.5L361.3,156.5
			L361.3,156.5z"/>
		<path class="st5" d="M407.4,111.5l-32.3,32.4c-7.8,7.9-18.3,12.2-29.4,12.2c-11.1,0-21.6-4.3-29.5-12.2c-3.4-3.5-3.4-9.1,0-12.5
			c1.7-1.7,3.9-2.6,6.2-2.6s4.6,0.9,6.2,2.6c4.5,4.5,10.5,7,16.9,7c6.4,0,12.4-2.5,16.9-7l32.3-32.4c9.3-9.4,9.3-24.6,0-33.9
			c-6.9-6.9-17.1-8.9-26.1-5.2c-7.4,3.1-21.4,18.1-29.8,27l-2.9,3.1l-0.8-0.1c-7.5-1.4-15.2-0.8-22.4,1.7l-5.4,1.9l3.9-4.2
			c18.2-19.6,38.5-40.8,50.6-45.8c15.6-6.5,33.5-2.9,45.4,9C423.6,68.7,423.7,95.2,407.4,111.5L407.4,111.5L407.4,111.5z"/>
	</g>
	<g>
		<path class="st1" d="M480.4,79.5h17.4v63.3H561v17.5h-80.6V79.5z"/>
		<path class="st1" d="M567.6,79.6h17.5v80.6h-17.5V79.6z"/>
		<path class="st1" d="M655.2,79.6h17.6v80.6h-17.9l-45.4-54v54h-17.4V79.6h17.9l45.1,53.8V79.6z"/>
		<path class="st1" d="M763.3,79.6v6L734.5,120c9.4,11.3,19.4,23.1,28.8,34.3v6h-18.1l-26.4-31.6h-15.8v31.6h-17.5V79.6h17.5v31.6
			h15.8c3.4-3.9,6.7-8,10.1-12l16.4-19.6H763.3z"/>
		<path class="st5" d="M852.4,111.3c0,1.9-0.2,3.7-0.8,5.2c2.2,2.8,3.9,6.7,3.9,10.5v16.7c0,9.2-7.5,16.6-16.7,16.6h-64V79.6h60.9
			c9.1,0,16.6,7.4,16.6,16.6V111.3z M792.3,110.6h42.6V97.1h-42.6V110.6z M792.3,142.8H838V128h-45.7V142.8z"/>
		<path class="st5" d="M948.3,117.2c0,9.1-7.5,16.6-16.7,16.6h-0.8c5.7,6.7,11.9,13.9,17.5,20.6v5.9h-17.9l-22.3-26.5l-23.1,0.1
			c0.2,0,0.3,0.2,0.3,0.7c0,0-0.2,0-0.3-0.1v25.9h-17.4V79.8h64c9.2,0,16.7,7.5,16.7,16.6V117.2z M885,116.3h45.7V97.1H885V116.3z"
			/>
		<path class="st5" d="M960.3,79.6h17.5v80.6h-17.5V79.6z"/>
		<path class="st5" d="M1049,79.6c9.2,0,16.7,7.4,16.7,16.6v47.5c0,9.2-7.5,16.6-16.7,16.6h-64V79.6H1049z M1002.4,142.8h45.7V97.1
			h-45.7V142.8z"/>
		<path class="st5" d="M1158.9,103.8h-17.6v-6.7h-45.7v45.7h45.7v-12.1h-17.5v-17.5h35.1v30.5c0,9.2-7.5,16.6-16.7,16.6h-47.4
			c-9.2,0-16.6-7.4-16.6-16.6V96.2c0-9.2,7.4-16.6,16.6-16.6h47.4c9.2,0,16.7,7.4,16.7,16.6V103.8z"/>
		<path class="st5" d="M1245.9,97.1H1189v14.1h45.8v17.5H1189v14.1h56.9v17.5h-74.5V79.6h74.5V97.1z"/>
	</g>
</g>
</svg>
