<svg xmlns="http://www.w3.org/2000/svg" xmlns:xlink="http://www.w3.org/1999/xlink" width="500" zoomAndPan="magnify" viewBox="0 0 375 374.999991" height="500" preserveAspectRatio="xMidYMid meet" version="1.0"><defs><clipPath id="f80c6ad376"><path d="M 106 37.5 L 269 37.5 L 269 142 L 106 142 Z M 106 37.5 " clip-rule="nonzero"/></clipPath><clipPath id="2c8603c7b7"><path d="M 87 111 L 182 111 L 182 337.5 L 87 337.5 Z M 87 111 " clip-rule="nonzero"/></clipPath><clipPath id="ec50914065"><path d="M 193 111 L 288 111 L 288 337.5 L 193 337.5 Z M 193 111 " clip-rule="nonzero"/></clipPath></defs><path fill="#0f978e" d="M 262.082031 197.507812 L 262.082031 181.53125 L 219.21875 156.785156 L 219.21875 179.660156 Z M 262.082031 197.507812 " fill-opacity="1" fill-rule="evenodd"/><path fill="#0f978e" d="M 262.082031 214.574219 L 262.082031 201.078125 L 219.21875 185.953125 L 219.21875 207.175781 Z M 262.082031 214.574219 " fill-opacity="1" fill-rule="evenodd"/><path fill="#0f978e" d="M 262.082031 231.007812 L 262.082031 218.25 L 219.21875 212.652344 L 219.21875 231.007812 Z M 262.082031 231.007812 " fill-opacity="1" fill-rule="evenodd"/><g clip-path="url(#f80c6ad376)"><path fill="#ff6c26" d="M 187.511719 37.679688 C 209.683594 37.679688 229.832031 46.738281 244.433594 61.339844 C 259.03125 75.9375 268.089844 96.085938 268.089844 118.257812 L 268.089844 141.882812 L 240.53125 125.972656 L 240.53125 118.265625 C 240.53125 103.703125 234.5625 90.445312 224.949219 80.832031 C 215.332031 71.214844 202.082031 65.253906 187.519531 65.253906 C 172.957031 65.253906 159.699219 71.222656 150.085938 80.832031 C 140.472656 90.453125 134.503906 103.703125 134.503906 118.265625 L 134.503906 125.972656 L 106.945312 141.882812 L 106.945312 118.257812 C 106.945312 96.085938 116.003906 75.9375 130.605469 61.339844 C 145.191406 46.738281 165.339844 37.679688 187.511719 37.679688 " fill-opacity="1" fill-rule="nonzero"/></g><g clip-path="url(#2c8603c7b7)"><path fill="#0f978e" d="M 141.019531 173.703125 C 158.699219 179.421875 157.117188 208.691406 141.449219 216.671875 L 152.128906 276.386719 L 117.996094 256.679688 L 127.390625 218.753906 C 104.121094 211.253906 116.484375 165.769531 141.019531 173.703125 M 181.753906 337.320312 L 87 282.617188 L 87 166.550781 L 181.753906 111.847656 Z M 181.753906 337.320312 " fill-opacity="1" fill-rule="evenodd"/></g><g clip-path="url(#ec50914065)"><path fill="#ff6c26" d="M 268.972656 177.550781 L 212.335938 144.847656 L 212.335938 304.3125 L 268.972656 271.609375 Z M 288.023438 166.550781 L 288.023438 282.613281 L 193.277344 337.320312 L 193.277344 111.847656 Z M 288.023438 166.550781 " fill-opacity="1" fill-rule="evenodd"/></g></svg>