<svg xmlns="http://www.w3.org/2000/svg" xmlns:xlink="http://www.w3.org/1999/xlink" width="500" zoomAndPan="magnify" viewBox="0 0 375 374.999991" height="500" preserveAspectRatio="xMidYMid meet" version="1.0"><defs><clipPath id="0a35e866b5"><path d="M 55.3125 204 L 320 204 L 320 337.5 L 55.3125 337.5 Z M 55.3125 204 " clip-rule="nonzero"/></clipPath><clipPath id="ce420faa3c"><path d="M 110 37.5 L 265 37.5 L 265 267 L 110 267 Z M 110 37.5 " clip-rule="nonzero"/></clipPath></defs><g clip-path="url(#0a35e866b5)"><path fill="#0f978e" d="M 319.628906 204.515625 L 316.011719 226.648438 C 306.976562 281.867188 263.828125 325.027344 208.613281 334.0625 L 187.625 337.5 L 166.402344 334.0625 C 111.199219 325.027344 68.039062 281.867188 59.015625 226.648438 L 55.371094 204.515625 L 77.515625 208.109375 C 85.121094 209.359375 92.632812 211.273438 99.84375 213.824219 C 142.964844 229.070312 175.269531 266.4375 184.171875 311.316406 L 187.507812 328.152344 L 190.839844 311.316406 C 199.730469 266.425781 232.046875 229.070312 275.15625 213.824219 C 282.367188 211.273438 289.878906 209.359375 297.484375 208.109375 Z M 319.628906 204.515625 " fill-opacity="1" fill-rule="nonzero"/></g><g clip-path="url(#ce420faa3c)"><path fill="#ff6c26" d="M 142.484375 215.207031 C 132.523438 208.136719 121.679688 202.289062 110.207031 197.835938 L 110.207031 132.636719 L 142.484375 132.636719 Z M 203.636719 242 L 203.636719 85.074219 L 171.363281 85.074219 L 171.363281 242 C 177.402344 249.355469 182.820312 257.480469 187.507812 266.191406 C 192.179688 257.46875 197.609375 249.332031 203.636719 242 Z M 232.515625 215.207031 C 242.5 208.109375 253.347656 202.277344 264.792969 197.851562 L 264.792969 37.5 L 232.515625 37.5 Z M 232.515625 215.207031 " fill-opacity="1" fill-rule="nonzero"/></g></svg>